<?xml version="1.0" standalone="no"?>
<!DOCTYPE svg PUBLIC "-//W3C//DTD SVG 20010904//EN"
 "http://www.w3.org/TR/2001/REC-SVG-20010904/DTD/svg10.dtd">
<svg version="1.0" xmlns="http://www.w3.org/2000/svg"
 width="1500.000000pt" height="247.000000pt" viewBox="0 0 1500.000000 247.000000"
 preserveAspectRatio="xMidYMid meet">

<g transform="translate(0.000000,247.000000) scale(0.100000,-0.100000)"
fill="#000000" stroke="none">
<path d="M14904 2393 c-20 -21 -79 -91 -131 -156 -52 -65 -100 -120 -107 -123
-12 -5 -142 -188 -190 -267 -25 -41 -111 -149 -166 -207 l-42 -45 -50 55 c-28
30 -75 92 -105 138 -64 96 -171 213 -271 296 -62 52 -81 62 -159 82 -110 29
-116 29 -150 0 -27 -24 -27 -25 -12 -57 9 -19 36 -56 61 -84 24 -27 63 -78 86
-111 23 -34 56 -78 75 -97 37 -40 202 -312 248 -411 l31 -66 -25 -43 c-33 -56
-120 -157 -311 -360 -125 -132 -162 -166 -177 -162 -11 4 -19 2 -19 -4 0 -6 4
-11 9 -11 5 0 8 -37 8 -82 -1 -46 -3 -75 -5 -65 -2 9 -7 17 -12 17 -5 0 -4 16
1 35 12 41 -1 74 -13 35 -6 -20 -7 -19 -3 8 5 38 0 40 -25 10 -25 -32 -38 -14
-16 22 12 22 15 40 10 66 -5 27 -4 35 5 30 6 -4 11 -17 12 -29 1 -20 2 -20 9
3 7 21 8 22 9 4 1 -11 -4 -25 -11 -32 -9 -9 -7 -16 7 -32 19 -21 35 -19 18 2
-6 7 -8 31 -5 53 l6 40 7 -30 c5 -19 6 -10 3 25 -4 40 -2 51 5 40 16 -23 13
-2 -5 36 -18 38 -34 44 -34 13 0 -13 4 -18 12 -13 8 5 9 2 5 -10 -4 -10 -7
-27 -7 -37 0 -11 -5 -17 -10 -14 -6 4 -8 9 -6 13 2 4 0 29 -4 55 -5 38 -4 47
7 43 21 -8 15 2 -8 15 -15 8 -19 8 -15 0 9 -14 -24 -14 -44 0 -12 8 -10 9 9 4
16 -5 21 -4 17 4 -11 17 -33 13 -57 -11 -12 -13 -19 -18 -16 -12 3 6 0 11 -8
11 -8 0 -12 -4 -10 -8 3 -4 -2 -10 -11 -13 -8 -3 -12 -2 -9 4 3 6 1 10 -4 10
-6 0 -11 -6 -11 -14 0 -8 -11 -13 -27 -13 -14 0 -32 -8 -39 -18 -7 -9 -21 -18
-31 -20 -10 -2 -20 -4 -23 -5 -3 0 4 -7 14 -15 23 -17 14 -20 -14 -5 -16 8
-18 8 -14 -5 5 -13 -8 -21 -19 -12 -2 1 -12 -5 -22 -13 -17 -13 -18 -13 -10 0
6 12 5 13 -5 3 -11 -10 -11 -15 0 -28 7 -8 20 -15 30 -15 31 0 31 -13 0 -27
-28 -11 -34 -10 -51 6 -13 12 -17 21 -10 26 6 3 11 11 11 16 0 6 -7 3 -16 -5
-8 -9 -19 -14 -23 -12 -4 3 -8 -1 -8 -8 0 -8 6 -12 14 -9 9 4 11 0 7 -11 -4
-10 -13 -15 -20 -12 -7 3 -20 -1 -27 -9 -8 -8 -23 -11 -35 -9 -18 5 -34 -7
-38 -28 -1 -5 -2 -11 -3 -15 -1 -5 -6 -1 -11 7 -8 12 -10 9 -10 -12 0 -16 -5
-28 -11 -28 -6 0 -9 7 -5 15 10 27 -2 16 -18 -16 -9 -17 -14 -34 -12 -38 3 -4
-5 -7 -17 -8 -12 0 -16 1 -9 4 6 3 12 9 12 14 0 6 -4 7 -10 4 -5 -3 -10 2 -10
12 -1 17 -1 17 -11 0 -5 -9 -8 -21 -5 -25 3 -5 0 -9 -7 -9 -7 0 -12 10 -12 23
0 12 2 21 4 19 2 -2 12 6 22 18 12 13 17 16 14 6 -3 -9 1 -21 9 -28 13 -11 14
-9 6 18 -5 18 -5 44 1 63 5 17 6 34 4 37 -3 2 -5 -2 -5 -9 0 -7 -3 -10 -7 -7
-3 4 2 16 11 26 31 35 12 44 -22 11 -24 -23 -37 -29 -46 -21 -14 12 -21 81 -8
81 5 0 10 -12 10 -26 0 -41 24 -49 41 -14 8 17 20 30 27 30 13 0 40 97 30 107
-3 4 -6 -4 -6 -16 0 -13 -5 -21 -12 -19 -16 6 -18 48 -1 48 7 0 13 8 13 18 0
13 2 14 9 4 6 -10 10 -8 14 10 9 33 7 47 -3 23 -7 -17 -9 -17 -9 -2 -1 9 -5
17 -11 17 -5 0 -10 5 -10 11 0 5 4 8 9 5 13 -9 42 4 35 15 -3 5 -7 24 -10 42
-2 18 -5 41 -6 52 -2 16 2 19 23 17 24 -2 27 2 33 40 4 24 7 53 7 66 -1 13 5
35 13 50 16 32 18 85 3 75 -5 -3 -7 -2 -4 4 3 5 -5 21 -19 36 -13 14 -24 31
-24 37 0 14 27 13 33 -2 2 -7 10 3 17 23 7 19 22 40 34 45 16 7 20 17 18 44
-1 26 0 31 8 20 9 -13 10 -13 9 0 0 8 -4 24 -8 34 -7 18 -8 18 -14 3 -3 -9
-12 -17 -19 -16 -10 0 -10 2 0 6 21 8 13 25 -9 18 -15 -5 -19 -4 -15 4 10 16
-1 14 -30 -6 -21 -13 -27 -14 -34 -3 -4 7 -13 9 -20 5 -8 -5 -11 -4 -6 3 3 6
2 13 -3 16 -9 6 -16 -23 -26 -113 -3 -24 -9 -49 -15 -56 -10 -13 -2 -55 11
-55 5 0 9 -7 9 -15 0 -11 7 -14 25 -9 15 4 25 2 25 -5 0 -6 -13 -11 -30 -11
-16 0 -30 4 -30 8 0 5 -7 17 -16 28 -10 12 -14 14 -11 4 2 -8 -2 -27 -9 -42
-8 -15 -11 -34 -8 -42 4 -9 2 -22 -4 -29 -5 -6 -12 -23 -15 -37 -3 -14 -12
-51 -20 -82 -8 -32 -11 -58 -6 -58 4 0 10 10 12 23 4 22 1 -6 -8 -65 -4 -29
-3 -30 4 -8 8 23 9 22 10 -13 1 -21 -3 -36 -8 -33 -5 3 -12 -1 -15 -10 -10
-25 -7 -74 4 -74 17 0 11 -24 -8 -37 -17 -10 -18 -7 -14 46 2 31 8 63 13 72 4
9 5 29 0 45 -7 28 -8 27 -15 -16 -4 -25 -9 -68 -10 -96 -2 -27 -8 -60 -15 -72
-6 -12 -8 -22 -4 -22 4 0 2 -5 -5 -12 -17 -17 -15 -38 3 -38 12 0 15 -9 13
-36 -2 -31 -18 -62 -18 -35 0 6 -4 11 -10 11 -5 0 -10 -17 -10 -37 0 -28 3
-34 10 -23 6 10 8 -6 6 -48 -1 -35 -8 -67 -14 -71 -8 -5 -12 -41 -11 -112 1
-71 4 -93 9 -71 11 49 23 53 15 5 -5 -34 -3 -45 14 -62 12 -12 18 -21 14 -21
-13 0 -30 14 -36 30 -4 12 -6 12 -6 -2 -1 -20 34 -42 55 -34 9 3 13 9 10 14
-6 10 50 9 60 -1 11 -11 26 -8 19 3 -3 6 1 7 9 4 9 -3 16 -1 16 5 0 6 9 20 21
32 13 13 18 27 13 41 -4 14 -3 18 5 14 7 -4 10 -2 9 5 -2 7 4 13 12 14 9 0 14
8 12 18 -2 9 1 16 5 15 11 -4 85 53 78 60 -3 3 -17 -5 -33 -19 l-27 -24 28 31
28 32 -25 0 c-16 0 -23 -5 -20 -13 3 -7 1 -15 -4 -19 -5 -3 -8 5 -7 17 2 24
40 33 63 14 9 -7 25 1 60 31 26 22 46 46 44 52 -1 7 5 9 17 5 14 -4 23 0 31
15 8 14 17 19 28 15 14 -5 15 -4 5 6 -7 7 -13 17 -13 22 0 5 7 1 16 -7 16 -16
39 -12 29 5 -4 5 -1 10 4 10 26 3 30 4 37 12 10 10 -14 9 -34 -2 -9 -5 -26 -5
-37 0 -24 9 -14 11 76 14 48 1 66 -2 66 -11 0 -7 -4 -11 -9 -8 -9 6 -11 -20
-1 -29 3 -4 12 1 19 11 12 16 13 15 14 -5 0 -14 -6 -23 -15 -23 -12 0 -14 -13
-11 -71 2 -39 0 -66 -3 -60 -8 13 -49 -28 -109 -109 -71 -96 -81 -131 -83
-269 -1 -141 8 -163 71 -182 38 -12 42 -10 122 36 46 26 153 94 239 151 131
86 161 111 184 150 23 38 25 50 16 70 -13 30 -47 31 -100 5 -24 -13 -42 -16
-52 -11 -20 13 8 62 91 157 36 42 91 110 123 152 32 42 91 110 131 151 40 41
89 96 110 123 20 26 41 47 45 47 5 0 21 -28 36 -62 15 -35 37 -85 50 -113 40
-87 82 -218 108 -333 l26 -113 -26 -72 c-13 -40 -25 -96 -26 -125 -1 -51 0
-55 51 -105 28 -29 61 -64 73 -79 11 -16 29 -28 38 -28 10 0 50 16 89 36 82
40 124 85 176 184 32 60 36 76 36 141 0 61 -5 85 -30 137 -16 35 -35 94 -40
130 -6 37 -19 78 -28 92 -10 14 -28 56 -40 93 -12 38 -72 173 -133 300 -128
266 -126 241 -26 354 78 88 122 147 303 403 87 124 171 250 186 281 35 75 49
207 23 232 -24 25 -40 21 -81 -20z m-1968 -779 c-4 -14 -9 -24 -12 -21 -3 2
-2 17 2 31 3 15 9 25 11 22 3 -3 2 -17 -1 -32z m91 -30 c-3 -3 -12 -4 -19 -1
-8 3 -5 6 6 6 11 1 17 -2 13 -5z m-57 -50 c0 -8 -5 -12 -10 -9 -6 4 -8 11 -5
16 9 14 15 11 15 -7z m-90 -24 c0 -5 -5 -10 -11 -10 -5 0 -7 5 -4 10 3 6 8 10
11 10 2 0 4 -4 4 -10z m-5 -99 c3 -5 1 -12 -5 -16 -5 -3 -10 1 -10 9 0 18 6
21 15 7z m115 -36 c0 -5 -5 -3 -11 5 -9 12 -10 11 -6 -6 2 -12 1 -28 -4 -35
-7 -11 -9 -11 -9 -1 0 7 -4 10 -10 7 -5 -3 -10 1 -10 9 0 9 4 16 9 16 5 0 13
10 16 21 6 17 9 19 16 8 5 -8 9 -18 9 -24z m-130 4 c0 -5 -4 -9 -10 -9 -5 0
-10 7 -10 16 0 8 5 12 10 9 6 -3 10 -10 10 -16z m12 -21 c-7 -7 -12 -22 -12
-34 0 -28 -10 -54 -20 -54 -5 0 -3 15 2 33 17 49 31 78 37 72 2 -3 -1 -11 -7
-17z m-41 -39 l-10 -24 0 26 c-1 14 2 29 6 33 12 12 14 -9 4 -35z m105 -47
c-12 -11 -18 7 -10 30 l8 23 4 -23 c2 -13 1 -26 -2 -30z m-43 -139 c3 -24 2
-43 -2 -43 -4 0 -8 21 -10 47 -3 57 4 54 12 -4z m-33 -13 c0 -11 -4 -20 -10
-20 -5 0 -10 9 -10 20 0 11 5 20 10 20 6 0 10 -9 10 -20z m-30 -66 c0 -9 -7
-23 -16 -31 -13 -14 -17 -14 -25 -2 -5 8 -9 19 -9 24 0 6 4 4 9 -3 6 -10 10
-7 15 12 7 27 26 27 26 0z m565 -94 c-3 -5 -11 -10 -16 -10 -6 0 -7 5 -4 10 3
6 11 10 16 10 6 0 7 -4 4 -10z m55 -33 l0 -30 -20 26 c-11 14 -20 28 -20 30 0
3 9 5 20 4 15 -1 20 -8 20 -30z m-173 -15 c16 -14 18 -20 8 -29 -7 -6 -16 -9
-19 -6 -3 4 -15 -2 -26 -12 -20 -18 -20 -18 -14 -1 4 11 2 21 -6 26 -9 6 -7
10 9 15 12 3 19 11 16 16 -10 15 11 10 32 -9z m-523 -24 c-10 -16 -22 -7 -17
13 4 15 8 17 14 8 4 -7 5 -17 3 -21z m646 12 c0 -5 -9 -10 -20 -10 -11 0 -20
5 -20 10 0 6 9 10 20 10 11 0 20 -4 20 -10z m-43 -26 c-3 -3 -12 -4 -19 -1 -8
3 -5 6 6 6 11 1 17 -2 13 -5z m23 -55 c0 -5 -4 -9 -8 -9 -5 0 -9 7 -9 15 0 8
4 12 9 9 4 -3 8 -9 8 -15z m-543 -71 c-3 -7 -5 -2 -5 12 0 14 2 19 5 13 2 -7
2 -19 0 -25z m-24 -39 c-4 -4 -9 6 -10 24 -1 30 -1 31 8 8 5 -14 6 -28 2 -32z
m607 41 c0 -5 -5 -10 -11 -10 -5 0 -7 5 -4 10 3 6 8 10 11 10 2 0 4 -4 4 -10z
m-647 -19 c3 -14 1 -18 -9 -14 -15 6 -18 16 -7 26 9 10 10 9 16 -12z m215 10
c11 -6 9 -9 -5 -13 -12 -3 -20 0 -20 8 0 16 6 17 25 5z m37 -21 c-11 -5 -27
-9 -35 -9 -9 0 -8 4 5 9 11 5 27 9 35 9 9 0 8 -4 -5 -9z m113 -2 c-3 -7 -15
-15 -28 -16 -21 -3 -22 -2 -11 12 16 19 44 21 39 4z m-184 -35 c-1 -16 -3 -33
-3 -38 -1 -6 -11 -11 -22 -12 l-22 -2 22 15 c18 13 20 19 10 31 -12 13 -7 22
16 33 1 0 0 -12 -1 -27z m126 6 c12 -8 10 -9 -7 -4 -25 7 -32 -9 -8 -19 18 -6
45 2 45 15 0 5 6 9 12 9 7 0 1 -10 -12 -22 -65 -58 -68 -60 -76 -47 -4 8 -3
10 4 5 8 -4 10 4 7 25 -6 48 5 59 35 38z m367 -21 c-3 -8 -6 -5 -6 6 -1 11 2
17 5 13 3 -3 4 -12 1 -19z m-522 -8 c3 -6 -4 -10 -17 -10 -18 0 -20 2 -8 10
19 12 18 12 25 0z m536 -57 c-9 -16 -10 -16 -11 -1 0 9 3 25 7 35 7 16 8 17
11 1 2 -10 -1 -25 -7 -35z m-444 31 c-3 -3 -12 -4 -19 -1 -8 3 -5 6 6 6 11 1
17 -2 13 -5z m-157 -28 c0 -8 -8 -14 -19 -13 -11 0 -17 6 -14 14 7 18 33 17
33 -1z m74 -18 c16 -11 -6 -10 -23 1 -8 5 -10 14 -5 22 6 10 9 10 12 -1 3 -8
10 -18 16 -22z m478 -15 c2 -6 0 -10 -3 -9 -4 0 -17 -8 -30 -19 -12 -11 -19
-14 -15 -7 4 7 2 12 -6 13 -7 0 -3 5 10 11 12 6 22 20 22 32 1 17 2 18 10 6 5
-9 10 -21 12 -27z m85 -15 c-3 -7 -5 -2 -5 12 0 14 2 19 5 13 2 -7 2 -19 0
-25z m-790 -30 c-3 -8 -6 -5 -6 6 -1 11 2 17 5 13 3 -3 4 -12 1 -19z m233 11
c0 -3 -10 -14 -22 -25 -13 -10 -17 -12 -10 -4 17 20 15 35 -3 20 -8 -7 -15
-19 -15 -26 0 -8 -4 -14 -10 -14 -13 0 -13 17 1 25 6 4 8 12 6 19 -3 7 7 11
24 11 16 1 29 -2 29 -6z m30 7 c0 -3 -4 -8 -10 -11 -5 -3 -10 -1 -10 4 0 6 5
11 10 11 6 0 10 -2 10 -4z m547 -48 c-2 -13 -4 -5 -4 17 -1 22 1 32 4 23 2
-10 2 -28 0 -40z m-64 1 c-9 -9 -12 -7 -10 9 1 14 5 18 11 12 7 -7 6 -14 -1
-21z m-561 -65 c-6 -12 -9 -7 -9 16 0 23 3 28 9 16 5 -9 5 -23 0 -32z m488 -5
l-11 -24 5 24 c3 14 0 32 -6 40 -11 14 -10 14 5 0 14 -12 16 -20 7 -40z m27
19 c-3 -8 -6 -5 -6 6 -1 11 2 17 5 13 3 -3 4 -12 1 -19z m24 -5 c-12 -20 -14
-14 -5 12 4 9 9 14 11 11 3 -2 0 -13 -6 -23z m-4 -45 c-3 -10 0 -18 5 -18 6 0
5 -6 -2 -15 -10 -12 -8 -16 14 -25 14 -5 26 -14 26 -19 0 -15 -43 10 -68 40
-25 31 -20 58 9 56 14 -1 19 -7 16 -19z m113 -50 c0 -9 -5 -20 -10 -23 -7 -4
-9 2 -4 19 5 22 3 25 -10 20 -11 -4 -15 -13 -11 -28 6 -19 5 -20 -8 -3 -8 9
-19 17 -26 17 -6 0 -11 5 -11 10 0 6 11 10 24 10 14 0 28 5 32 11 8 14 24 -8
24 -33z"/>
<path d="M13241 901 c-10 -7 -7 -9 12 -8 14 1 23 5 20 10 -6 9 -15 9 -32 -2z"/>
<path d="M13050 650 c0 -5 5 -10 10 -10 6 0 10 5 10 10 0 6 -4 10 -10 10 -5 0
-10 -4 -10 -10z"/>
<path d="M13401 378 c5 -10 12 -18 14 -18 2 0 3 8 2 18 0 10 -7 19 -13 19 -9
0 -10 -5 -3 -19z"/>
<path d="M1029 1953 c-13 -16 -12 -17 4 -4 9 7 17 15 17 17 0 8 -8 3 -21 -13z"/>
<path d="M8814 1738 c-7 -11 13 -26 51 -40 12 -5 6 -6 -15 -3 -19 3 -36 9 -38
13 -1 4 -7 14 -12 22 -16 26 -54 -21 -52 -64 1 -20 -3 -36 -9 -36 -6 0 -8 -9
-4 -20 3 -11 2 -20 -3 -20 -11 0 -26 -73 -22 -114 1 -15 -2 -26 -7 -23 -5 3
-9 -2 -10 -11 -1 -9 -7 -41 -12 -71 -7 -35 -7 -69 -1 -95 14 -60 11 -77 -6
-31 -14 40 -14 40 -8 5 16 -99 16 -110 5 -110 -6 0 -11 -8 -12 -17 0 -15 -2
-15 -9 2 -6 15 -8 10 -7 -20 1 -124 -6 -221 -16 -227 -8 -5 -12 -51 -13 -130
-1 -70 2 -110 6 -93 l8 30 1 -32 c0 -18 -3 -33 -7 -33 -5 0 -9 -13 -10 -30 0
-16 -4 -35 -9 -42 -20 -33 -3 -105 37 -153 17 -20 50 -2 45 24 -4 20 7 33 38
44 15 6 16 4 7 -13 -6 -10 -18 -24 -28 -29 -9 -6 -13 -11 -8 -11 5 0 1 -8 -8
-19 -16 -18 -16 -19 15 -16 17 1 35 8 39 15 4 7 13 10 18 6 17 -10 32 26 20
48 -8 14 -8 17 2 11 9 -6 10 -2 4 16 -5 13 -8 75 -7 137 1 62 -3 112 -8 112
-5 0 -9 4 -9 10 0 5 7 7 15 4 8 -4 15 -1 15 5 0 15 -37 14 -43 -1 -4 -10 -8
-9 -16 2 -17 24 -8 43 22 46 16 1 35 9 44 16 12 10 17 9 28 -5 8 -11 19 -15
30 -11 13 5 14 9 3 15 -10 6 -10 11 0 21 6 6 13 8 13 3 7 -47 4 -83 -8 -96
-12 -14 -6 -22 49 -70 34 -30 65 -54 68 -54 14 0 49 -33 42 -40 -4 -5 -2 -5 5
-1 6 3 14 2 18 -4 3 -5 15 -10 26 -10 11 0 17 -5 14 -10 -4 -6 -12 -7 -18 -3
-7 3 -3 -3 7 -15 19 -22 32 -30 21 -13 -3 5 -1 12 5 16 5 3 10 0 10 -8 0 -24
46 -60 69 -52 12 3 21 11 21 16 0 6 10 9 23 7 22 -3 22 -24 0 -22 -7 1 -13 -2
-13 -8 0 -5 -4 -7 -8 -4 -4 2 -13 2 -19 -2 -12 -8 58 -66 92 -77 12 -4 15 -3
9 2 -6 4 -10 16 -8 26 1 10 -2 14 -8 11 -6 -4 -9 -1 -6 6 2 7 11 14 20 16 10
1 14 -5 12 -22 -1 -14 5 -28 14 -34 10 -5 12 -10 5 -10 -7 0 -13 -4 -13 -10 0
-5 7 -6 17 -3 10 4 14 2 10 -4 -6 -10 28 -11 39 -1 3 4 13 4 22 1 14 -5 15 -3
5 7 -9 10 -16 10 -25 2 -9 -7 -19 -7 -28 -2 -13 9 -13 10 0 10 13 0 13 1 0 10
-21 14 31 6 59 -10 14 -7 21 -7 22 0 3 20 4 25 13 39 7 10 6 12 -4 6 -10 -6
-12 -3 -7 11 5 13 0 11 -18 -9 -16 -18 -25 -23 -25 -13 0 8 5 18 10 21 6 3 10
14 10 23 0 12 -6 7 -20 -13 -23 -35 -26 -26 -5 14 13 26 13 30 0 41 -8 7 -15
9 -15 4 0 -4 -21 12 -46 36 -26 25 -44 38 -40 30 4 -8 -2 -4 -14 10 -23 26
-50 35 -50 17 0 -5 -3 -7 -6 -4 -4 4 -1 14 7 24 8 9 9 14 2 10 -7 -4 -18 2
-27 15 -9 12 -16 17 -16 10 0 -7 -5 -10 -11 -7 -6 4 -8 9 -5 12 7 7 -18 32
-27 26 -4 -2 -10 3 -13 11 -3 9 -13 16 -21 16 -8 0 -12 3 -10 8 3 4 -26 30
-63 58 -48 37 -71 49 -81 42 -11 -7 -10 -8 5 -6 14 2 19 -4 20 -25 1 -16 8
-32 16 -37 8 -5 11 -12 7 -16 -4 -4 -8 -5 -10 -3 -40 56 -54 88 -45 97 12 12
4 28 -22 42 -14 8 -18 6 -16 -7 2 -9 9 -19 16 -21 8 -3 10 0 5 8 -5 9 -4 11 4
6 15 -10 3 -29 -15 -22 -17 7 -18 -6 -2 -22 9 -9 9 -12 0 -12 -7 0 -13 6 -14
13 -8 67 1 86 41 88 l26 1 -25 8 c-27 9 -26 9 85 15 42 2 125 22 125 31 0 2
-12 2 -27 -1 l-28 -5 25 10 c13 6 34 9 47 5 12 -3 25 0 28 5 4 6 10 8 15 5 5
-3 11 -1 14 4 3 5 22 12 42 16 42 7 72 30 51 38 -6 3 5 3 26 1 31 -2 37 0 33
12 -4 11 -2 12 12 5 14 -7 29 -3 60 15 23 14 40 30 36 35 -3 5 -2 9 3 8 20 -4
23 2 8 17 -18 18 -17 45 3 52 7 2 12 -5 12 -17 0 -12 6 -21 15 -21 18 0 14 52
-5 75 -13 16 -35 21 -26 6 3 -5 -1 -11 -9 -15 -8 -3 -15 -12 -15 -21 0 -19
-16 -20 -27 -1 -11 19 -54 41 -51 25 2 -6 -3 -14 -11 -17 -10 -3 -11 0 -5 9 8
15 -14 0 -45 -29 -7 -7 -20 -11 -28 -8 -7 3 -16 -1 -19 -9 -4 -8 -17 -15 -29
-15 -13 0 -27 -5 -30 -10 -4 -6 -11 -7 -17 -4 -7 5 -8 2 -3 -6 6 -9 1 -10 -16
-5 -19 5 -21 4 -9 -5 12 -9 9 -10 -15 -6 l-30 7 25 -20 25 -19 -30 -8 c-25 -6
-26 -8 -10 -14 17 -6 17 -7 2 -13 -9 -3 -17 -2 -17 3 0 13 -73 32 -80 20 -8
-12 -62 -16 -79 -5 -10 6 -12 4 -6 -5 6 -10 1 -12 -26 -7 -20 4 -29 4 -21 -2
10 -6 7 -10 -12 -13 -15 -3 -26 -1 -26 6 0 8 -3 7 -8 -1 -4 -6 -18 -9 -32 -6
-22 4 -25 10 -26 48 0 24 3 42 8 39 4 -3 8 7 8 23 0 15 3 46 5 68 4 30 3 35
-4 20 -8 -18 -10 -16 -10 11 -1 16 -7 36 -13 43 -11 10 -10 11 5 6 10 -4 17
-2 17 4 0 6 -6 11 -14 11 -19 0 -28 28 -16 48 8 15 9 14 10 -4 0 -12 7 -25 16
-28 12 -4 14 -14 10 -38 -5 -29 -5 -30 4 -10 5 13 7 34 4 47 -3 12 -1 26 5 30
6 3 8 11 5 17 -4 6 -1 14 6 18 7 4 12 32 13 68 1 33 5 58 9 56 5 -3 8 18 8 46
0 28 4 49 8 46 4 -2 7 12 5 32 -2 29 -1 33 6 17 8 -16 10 -13 10 20 0 36 -1
38 -13 22 -9 -12 -16 -14 -21 -8 -3 6 -2 11 3 11 15 0 21 37 9 49 -6 6 -18 11
-26 11 -10 -1 -7 -6 9 -15 19 -11 21 -14 8 -15 -10 0 -27 9 -38 20 -13 13 -22
16 -26 8z m-15 -35 c8 -16 8 -24 -1 -29 -6 -4 -8 -3 -5 3 4 6 -1 17 -10 24
-14 12 -16 12 -11 -2 3 -9 3 -31 -1 -50 l-7 -34 -5 32 c-3 20 -2 30 5 26 5 -4
7 1 3 12 -4 9 -2 24 4 32 13 15 12 16 28 -14z m46 -93 c7 -22 -3 -65 -13 -55
-9 9 -10 75 -1 75 4 0 11 -9 14 -20z m-64 -30 c1 -5 2 -14 3 -19 0 -5 4 -13 9
-17 11 -11 9 -36 -3 -29 -6 4 -8 11 -5 16 4 5 0 9 -7 9 -8 0 -15 11 -16 25 -2
23 16 37 19 15z m62 -102 c-7 -35 -23 -37 -23 -2 0 14 4 23 10 19 6 -3 10 -1
10 6 0 7 2 10 4 8 2 -2 2 -16 -1 -31z m12 -48 c-9 -41 -17 -33 -9 9 4 17 9 30
11 27 3 -2 2 -19 -2 -36z m-115 0 c0 -16 -5 -30 -11 -30 -6 0 -9 7 -5 15 3 8
1 15 -4 15 -5 0 -7 7 -4 15 10 25 24 17 24 -15z m83 1 c-4 -3 -11 -10 -15 -15
-4 -4 -6 1 -5 12 1 12 6 18 15 15 7 -3 10 -9 5 -12z m2 -52 c-3 -44 -15 -67
-15 -28 0 25 10 69 15 69 2 0 2 -18 0 -41z m-108 -15 c2 -28 2 -28 -7 -4 -8
25 -8 25 -9 -5 -1 -16 -6 -37 -12 -45 -8 -12 -9 -10 -5 10 3 14 6 38 6 53 0
38 24 30 27 -9z m-7 -85 c0 -11 -4 -18 -10 -14 -5 3 -7 12 -3 20 7 21 13 19
13 -6z m7 -51 c-3 -8 -6 -5 -6 6 -1 11 2 17 5 13 3 -3 4 -12 1 -19z m643 -63
c0 -2 -17 -14 -37 -25 -21 -12 -31 -19 -23 -17 67 19 66 19 45 5 -28 -17 -79
-20 -66 -4 6 7 7 17 3 21 -4 5 -1 5 5 1 7 -4 25 0 40 8 32 17 33 18 33 11z
m-653 -47 c-3 -7 -5 -2 -5 12 0 14 2 19 5 13 2 -7 2 -19 0 -25z m-17 2 c0 -5
-4 -10 -10 -10 -5 0 -10 5 -10 10 0 6 5 10 10 10 6 0 10 -4 10 -10z m715 -20
c-4 -6 -11 -7 -17 -4 -7 4 -8 2 -4 -4 4 -7 15 -8 30 -2 32 12 56 -4 28 -19
-25 -14 -43 -14 -22 -1 13 8 13 10 -2 10 -9 0 -20 -4 -23 -10 -8 -13 -35 -13
-35 1 0 5 6 7 13 3 9 -6 9 -4 -1 8 -10 13 -10 17 0 21 22 9 39 7 33 -3z m-205
-20 c0 -5 -5 -10 -11 -10 -5 0 -7 5 -4 10 3 6 8 10 11 10 2 0 4 -4 4 -10z m3
-44 c-4 -5 1 -7 11 -3 10 4 15 3 11 -3 -3 -6 -1 -10 6 -10 7 0 10 -3 6 -6 -3
-4 -21 3 -39 14 -27 18 -29 21 -11 19 12 0 19 -5 16 -11z m-13 -22 c0 -8 4
-13 8 -10 5 3 9 -1 9 -9 0 -13 -4 -12 -19 2 -17 15 -19 15 -37 -1 -10 -9 -25
-14 -35 -10 -23 9 -20 27 4 19 11 -3 20 -2 20 4 0 8 16 16 43 20 4 0 7 -6 7
-15z m90 6 c8 -5 11 -10 5 -10 -5 0 -17 5 -25 10 -8 5 -10 10 -5 10 6 0 17 -5
25 -10z m-450 -20 c0 -5 -4 -10 -9 -10 -6 0 -13 5 -16 10 -3 6 1 10 9 10 9 0
16 -4 16 -10z m425 0 c-3 -5 -14 -10 -23 -9 -14 0 -13 2 3 9 27 11 27 11 20 0z
m-385 -10 c0 -12 -44 -24 -62 -17 -7 3 -1 6 15 6 15 1 27 6 27 11 0 6 5 10 10
10 6 0 10 -4 10 -10z m305 -10 c-3 -5 -10 -10 -16 -10 -5 0 -9 5 -9 10 0 6 7
10 16 10 8 0 12 -4 9 -10z m-135 -14 c0 -2 -11 -6 -25 -8 -13 -3 -22 -1 -19 3
5 9 44 13 44 5z m-120 -26 c0 -5 -7 -10 -15 -10 -8 0 -15 -4 -15 -10 0 -5 -11
-10 -25 -10 -14 0 -25 5 -25 12 0 6 3 9 6 5 3 -3 20 1 37 8 39 17 37 17 37 5z
m110 -10 c18 -12 2 -12 -25 0 -13 6 -15 9 -5 9 8 0 22 -4 30 -9z m47 4 c-3 -3
-12 -4 -19 -1 -8 3 -5 6 6 6 11 1 17 -2 13 -5z m-104 -11 c-7 -2 -21 -2 -30 0
-10 3 -4 5 12 5 17 0 24 -2 18 -5z m-143 -49 c0 -2 -7 -4 -15 -4 -8 0 -15 4
-15 10 0 5 7 7 15 4 8 -4 15 -8 15 -10z m-203 -36 c-3 -7 -5 -2 -5 12 0 14 2
19 5 13 2 -7 2 -19 0 -25z m240 26 c-3 -3 -12 -4 -19 -1 -8 3 -5 6 6 6 11 1
17 -2 13 -5z m173 -136 c10 -9 22 -13 26 -10 3 4 5 1 2 -7 -2 -8 -10 -17 -18
-19 -7 -3 -10 0 -6 7 4 6 3 11 -2 11 -6 0 -12 -7 -16 -15 -7 -18 -36 -20 -36
-2 0 20 21 36 39 30 9 -3 1 5 -18 18 -19 13 -37 31 -39 39 -5 14 5 6 68 -52z
m-123 -21 c19 7 18 5 -8 -15 -13 -10 -19 -8 -35 9 -19 22 -19 22 3 10 12 -6
30 -8 40 -4z m39 -34 c-3 -33 10 -54 30 -46 7 3 17 -2 20 -11 3 -9 10 -13 15
-10 5 3 6 10 3 16 -4 7 -2 8 4 4 7 -4 12 -4 12 1 0 4 17 9 37 10 26 1 33 -1
23 -7 -8 -5 -15 -17 -15 -27 0 -13 -8 -18 -28 -18 -15 -1 -27 3 -27 8 0 4 -4
6 -9 2 -6 -3 -14 3 -20 12 -5 10 -13 14 -17 10 -12 -11 -43 23 -37 41 5 11 3
13 -8 7 -11 -7 -12 -6 -2 7 7 8 10 18 6 21 -3 4 -1 7 5 7 6 0 10 -12 8 -27z
m-267 -27 c-9 -8 -10 -7 -5 7 3 10 7 24 7 30 1 7 3 4 6 -7 3 -10 -1 -23 -8
-30z m406 35 c-6 -10 29 -34 37 -26 3 3 5 -2 5 -10 0 -11 -4 -12 -14 -4 -7 6
-23 9 -34 6 -24 -6 -56 17 -39 28 5 3 10 1 10 -4 0 -6 7 -11 15 -11 9 0 12 6
9 15 -4 8 -1 15 6 15 6 0 9 -4 5 -9z m-335 -36 c0 -8 -4 -15 -10 -15 -5 0 -7
7 -4 15 4 8 8 15 10 15 2 0 4 -7 4 -15z m-68 -55 c-2 -16 -6 -30 -8 -30 -2 0
-4 14 -4 30 0 17 4 30 8 30 5 0 7 -13 4 -30z m-52 -15 c10 -12 10 -15 -4 -15
-9 0 -16 7 -16 15 0 8 2 15 4 15 2 0 9 -7 16 -15z m595 5 c-3 -5 -1 -10 5 -10
6 0 8 -5 4 -12 -6 -9 -9 -9 -12 0 -2 7 -9 9 -15 5 -7 -4 -6 1 2 10 15 18 26
23 16 7z m-601 -45 c-4 -8 -11 -12 -16 -9 -6 4 -5 10 3 15 19 12 19 11 13 -6z
m67 2 c-1 -12 -15 -9 -19 4 -3 6 1 10 8 8 6 -3 11 -8 11 -12z m489 -43 c0 -4
-11 3 -25 16 -13 12 -22 27 -19 32 6 9 44 -33 44 -48z m10 42 c-7 -7 -14 -6
-21 1 -9 9 -7 12 9 10 14 -1 18 -5 12 -11z m141 -48 c-1 -5 -4 -7 -8 -5 -5 1
-7 6 -5 10 1 5 -3 7 -10 4 -7 -2 -12 -10 -10 -16 3 -15 -2 -14 -26 8 -26 22
-28 31 -6 31 9 0 12 5 8 13 -5 6 7 1 25 -13 18 -14 32 -28 32 -32z m-681 12
c0 -5 -4 -10 -10 -10 -5 0 -10 5 -10 10 0 6 5 10 10 10 6 0 10 -4 10 -10z
m497 -5 c8 -23 0 -25 -21 -4 -18 17 -18 19 -2 19 9 0 19 -7 23 -15z m-537 -10
c0 -8 -4 -15 -10 -15 -5 0 -10 7 -10 15 0 8 5 15 10 15 6 0 10 -7 10 -15z
m139 -22 c-2 -25 1 -37 9 -36 6 2 9 -4 5 -12 -4 -12 -9 -13 -19 -4 -11 9 -14
8 -14 -2 0 -11 -2 -11 -10 1 -7 11 -5 18 5 26 8 6 15 23 15 38 0 14 3 26 6 26
3 0 4 -17 3 -37z m489 -30 c-10 -12 -9 -18 7 -29 10 -8 14 -14 8 -14 -18 0
-32 25 -26 48 3 12 9 19 15 16 5 -3 4 -12 -4 -21z m-27 4 c-7 -7 -14 -8 -21
-1 -6 6 -2 10 12 11 16 2 18 -1 9 -10z"/>
<path d="M9293 505 c0 -8 4 -12 9 -9 5 3 6 10 3 15 -9 13 -12 11 -12 -6z"/>
<path d="M12946 1742 c-3 -3 -6 -14 -6 -24 0 -16 -3 -17 -20 -8 -15 8 -18 7
-15 -2 6 -15 46 -43 44 -31 -4 22 2 33 13 27 7 -5 28 -9 46 -10 30 -1 31 0 16
17 -16 17 -44 16 -44 -3 0 -5 -7 -3 -15 6 -19 19 -20 32 -1 17 8 -7 17 -8 20
-3 6 11 -29 23 -38 14z"/>
<path d="M4268 1731 c-48 -5 -56 -8 -48 -21 13 -20 13 -356 0 -381 -10 -18 -7
-19 42 -19 l53 0 -3 105 -4 105 31 -11 c17 -6 40 -23 52 -37 11 -15 50 -57 85
-94 63 -66 66 -68 115 -68 l51 0 -49 44 c-27 24 -75 74 -107 110 l-57 65 40
20 c79 41 104 110 56 155 -39 36 -102 43 -257 27z m172 -34 c22 -11 25 -19 25
-62 0 -45 -3 -51 -34 -72 -22 -15 -49 -23 -77 -23 l-44 0 0 85 0 85 53 0 c28
0 63 -6 77 -13z"/>
<path d="M4753 1729 c-40 -12 -83 -62 -83 -99 0 -43 29 -69 131 -119 70 -34
97 -53 108 -75 28 -59 -24 -108 -114 -107 -58 0 -86 10 -122 44 l-23 20 0 -35
c0 -41 6 -44 109 -54 155 -17 278 75 224 166 -12 22 -40 42 -90 66 -40 19 -76
34 -80 34 -16 0 -63 55 -63 75 0 12 12 32 26 46 21 19 36 24 83 24 38 0 66 -6
84 -18 35 -23 38 -22 34 11 l-4 27 -94 2 c-52 1 -108 -3 -126 -8z"/>
<path d="M6496 1726 c-50 -19 -82 -42 -120 -90 -29 -35 -31 -43 -31 -120 0
-71 3 -87 24 -118 33 -48 76 -75 140 -89 131 -28 270 16 323 101 69 112 36
245 -76 302 -54 28 -202 35 -260 14z m194 -34 c78 -42 114 -184 68 -272 -33
-65 -84 -92 -165 -87 -44 2 -71 9 -90 23 -105 78 -103 271 3 331 50 29 135 31
184 5z"/>
<path d="M2051 1698 c5 -18 9 -99 9 -179 0 -169 8 -190 83 -210 57 -15 166 -5
216 20 49 26 50 26 44 1 -5 -18 0 -20 46 -20 50 0 50 0 41 26 -6 14 -10 97
-10 184 0 87 4 170 10 184 9 26 9 26 -45 26 l-54 0 11 -31 c15 -44 4 -269 -16
-306 -19 -37 -54 -53 -116 -53 -66 0 -96 13 -120 52 -17 29 -20 51 -20 166 0
73 5 142 10 153 10 18 7 19 -44 19 l-55 0 10 -32z"/>
<path d="M2600 1709 c13 -23 9 -339 -4 -376 -8 -22 -6 -23 38 -23 44 0 45 1
36 24 -9 26 -16 321 -7 321 3 0 76 -78 162 -172 140 -154 161 -173 189 -173
l31 0 -3 168 c-3 127 0 178 11 210 l15 42 -45 0 c-40 0 -43 -2 -33 -19 6 -11
10 -84 10 -168 l-1 -148 -80 85 c-44 47 -112 122 -150 168 l-70 82 -55 0 c-52
0 -54 -1 -44 -21z"/>
<path d="M3162 1688 c11 -47 5 -332 -7 -360 -6 -16 -1 -18 49 -18 53 0 56 1
46 19 -6 12 -10 92 -10 191 0 99 4 179 10 191 10 18 7 19 -44 19 l-54 0 10
-42z"/>
<path d="M3338 1633 c27 -54 68 -149 92 -210 43 -113 43 -113 76 -113 33 0 35
2 103 138 39 75 90 167 115 205 26 37 46 70 46 72 0 3 -23 5 -51 5 -31 0 -48
-4 -44 -10 4 -6 1 -27 -5 -48 -14 -47 -132 -292 -140 -292 -3 0 -12 17 -19 38
-8 20 -41 99 -74 175 l-60 137 -43 0 -44 0 48 -97z"/>
<path d="M3828 1540 c2 -124 -1 -196 -8 -210 -11 -20 -9 -20 154 -20 l164 0
11 30 c5 17 8 30 7 30 -2 0 -20 -7 -39 -15 -23 -9 -68 -15 -122 -15 l-85 0 0
85 c0 74 2 85 18 85 50 1 156 20 165 29 8 8 -16 11 -86 11 l-97 0 0 81 0 82
84 -7 c46 -3 91 -9 100 -12 12 -4 16 0 16 15 0 20 -4 21 -142 21 l-143 0 3
-190z"/>
<path d="M5080 1704 c6 -14 10 -97 10 -184 0 -87 -4 -170 -10 -184 -9 -26 -9
-26 45 -26 54 0 54 0 45 26 -6 14 -10 97 -10 184 0 87 4 170 10 184 9 26 9 26
-45 26 -54 0 -54 0 -45 -26z"/>
<path d="M5238 1713 c-4 -16 3 -18 79 -14 l84 3 -3 -196 -3 -196 53 0 c49 0
52 1 42 19 -6 12 -10 93 -10 195 l0 176 75 0 c41 0 86 6 101 12 26 12 29 10
75 -41 26 -29 62 -80 80 -114 27 -51 33 -73 33 -127 1 -36 -2 -77 -7 -92 l-7
-28 55 0 c52 0 55 1 45 19 -13 25 -13 115 0 162 6 20 47 79 95 137 l86 102
-50 0 c-39 0 -49 -3 -45 -14 7 -18 -16 -63 -71 -138 l-44 -59 -37 73 c-20 40
-48 88 -62 105 l-24 33 -268 0 c-247 0 -268 -1 -272 -17z"/>
<path d="M6950 1711 c13 -26 13 -356 0 -382 -10 -18 -7 -19 46 -19 49 0 55 2
49 18 -4 9 -9 50 -12 89 -6 83 -14 76 100 91 123 16 124 35 2 30 l-100 -3 0
85 0 85 49 3 c45 3 110 -7 147 -22 12 -5 16 -2 15 16 -1 23 -2 23 -154 26
-149 2 -153 2 -142 -17z"/>
<path d="M8185 1660 c-3 -6 1 -7 9 -4 18 7 21 14 7 14 -6 0 -13 -4 -16 -10z"/>
<path d="M8220 1661 c0 -15 -31 -21 -51 -10 -17 9 -20 7 -17 -8 2 -10 8 -21
13 -25 6 -5 5 -8 -3 -8 -7 0 -10 -4 -7 -10 11 -18 -11 -10 -30 10 -10 11 -13
20 -7 20 7 0 12 -4 12 -10 0 -5 4 -10 9 -10 5 0 8 7 7 15 -1 9 -5 15 -9 15 -4
0 -11 0 -16 0 -6 0 -17 -13 -27 -29 -11 -19 -23 -27 -35 -24 -10 3 -27 2 -36
-2 -10 -5 -22 -7 -26 -6 -5 1 -5 -4 -1 -10 5 -9 2 -10 -10 -6 -11 5 -15 3 -10
-5 5 -7 0 -9 -14 -6 -14 4 -20 2 -15 -5 4 -6 0 -8 -9 -4 -9 3 -36 -7 -61 -23
-25 -16 -49 -25 -53 -22 -4 4 -4 1 0 -6 4 -7 11 -10 16 -7 5 3 11 1 15 -4 6
-11 -27 -7 -48 5 -9 6 -9 4 1 -8 10 -13 10 -17 0 -22 -7 -3 -2 -4 11 -2 13 3
20 1 15 -4 -5 -4 -18 -10 -29 -12 -14 -2 -19 2 -17 14 3 17 1 17 -27 1 -16
-10 -27 -21 -25 -25 2 -3 0 -9 -6 -13 -6 -4 -8 -11 -5 -16 4 -5 -4 -9 -16 -9
-22 0 -22 0 -3 23 10 12 -8 -3 -40 -33 -54 -51 -114 -145 -102 -158 3 -3 6 1
7 9 0 8 6 -5 14 -29 10 -31 11 -52 3 -72 -7 -20 -6 -35 3 -52 11 -21 11 -22
-4 -9 -32 26 -17 0 25 -42 23 -23 41 -43 40 -44 -1 -2 1 -3 6 -3 4 0 7 8 7 18
0 11 -7 16 -19 14 -11 -2 -15 1 -11 8 3 6 14 9 23 8 9 -2 17 2 17 9 0 21 12
24 18 4 3 -12 0 -19 -6 -18 -10 2 -12 -11 -8 -43 0 -5 8 -10 16 -10 8 0 12 -6
9 -13 -3 -8 7 -18 23 -25 26 -12 27 -11 8 3 -19 16 -19 16 8 10 15 -4 27 -3
27 2 0 5 7 10 15 10 8 0 15 -5 15 -10 0 -5 7 -7 15 -3 9 3 15 0 15 -8 0 -8 9
-12 23 -11 12 1 14 0 4 -2 -22 -6 -12 -23 14 -23 12 0 19 -7 19 -20 0 -13 7
-20 18 -20 10 0 23 -5 30 -12 9 -9 12 -9 12 0 0 7 5 12 11 12 6 0 9 -7 6 -14
-4 -11 -1 -13 10 -9 10 4 14 2 9 -5 -4 -7 3 -9 21 -6 40 7 54 24 16 20 -21 -3
-37 1 -47 12 -13 15 -12 19 9 38 16 15 28 18 39 12 21 -12 21 -29 0 -21 -20 7
-38 -18 -21 -29 17 -11 29 -10 22 2 -3 6 0 10 7 10 7 0 31 9 52 21 21 11 41
17 44 14 3 -3 -4 -8 -16 -12 -12 -3 -22 -9 -22 -14 0 -5 8 -6 18 -2 12 4 10
-1 -7 -15 -13 -12 -28 -22 -34 -22 -5 0 -4 -7 3 -15 10 -12 10 -18 1 -29 -8
-10 -9 -16 -1 -21 5 -3 10 -1 10 6 0 10 3 10 11 2 8 -8 20 -8 34 -3 24 9 35 4
35 -14 0 -6 -5 -4 -10 4 -7 12 -10 12 -10 1 0 -7 -6 -11 -15 -7 -8 3 -15 0
-15 -7 0 -8 -4 -7 -11 3 -9 13 -10 13 -6 0 2 -8 10 -14 16 -13 6 2 11 -4 11
-13 0 -11 6 -14 20 -9 18 6 19 2 16 -35 -2 -23 -7 -45 -11 -48 -4 -4 -4 9 -1
28 7 34 6 34 -7 11 -17 -28 -11 -65 9 -57 7 3 16 0 20 -6 5 -7 2 -8 -6 -3 -9
5 -10 2 -6 -12 3 -11 -1 -27 -10 -39 -14 -18 -15 -18 -4 5 10 19 9 26 -4 39
-8 9 -19 12 -23 8 -4 -4 -1 -11 6 -15 10 -6 10 -13 2 -28 -5 -11 -9 -22 -8
-24 1 -2 -4 2 -10 10 -7 8 -13 20 -12 25 0 6 3 5 6 -2 2 -6 9 -10 14 -7 5 4 3
12 -4 19 -10 11 -15 10 -27 -8 -19 -27 -21 -46 -7 -46 7 0 0 -11 -15 -25 -15
-14 -35 -25 -44 -25 -14 0 -15 -2 -3 -17 13 -17 13 -17 -7 -1 -11 10 -31 18
-45 19 -22 0 -23 1 -4 9 13 5 14 9 5 9 -19 0 -59 -17 -43 -18 7 -1 10 -8 6
-17 -5 -15 -7 -15 -15 0 -5 9 -17 16 -26 16 -15 0 -15 -2 -2 -11 12 -8 9 -9
-12 -5 -16 4 -28 3 -28 -2 0 -5 -19 -9 -42 -10 -23 -1 -50 -5 -60 -8 -9 -3
-26 0 -38 6 -16 9 -20 8 -20 -5 0 -9 6 -15 13 -14 41 5 34 -4 -12 -17 -65 -17
-91 -13 -67 11 9 9 23 15 32 13 9 -2 19 3 22 11 3 10 -1 13 -15 9 -11 -3 -28
-1 -37 4 -11 6 -22 6 -32 -3 -8 -6 -17 -9 -21 -5 -11 11 -42 -25 -36 -42 4
-10 2 -13 -5 -8 -7 4 -12 2 -12 -4 0 -6 7 -10 16 -8 10 2 19 -3 22 -11 3 -10
-2 -11 -18 -6 -15 5 -20 4 -16 -4 4 -6 14 -11 22 -11 8 0 12 -4 9 -10 -4 -6 1
-7 11 -3 11 4 15 3 10 -5 -3 -6 -2 -13 3 -16 5 -3 11 1 14 9 4 8 -2 17 -15 21
-11 3 -16 9 -11 13 5 3 12 14 16 24 6 15 3 17 -16 12 -21 -7 -21 -6 -5 11 14
14 20 15 31 5 16 -13 11 -51 -7 -51 -6 0 -4 -5 4 -10 8 -5 15 -17 15 -27 0
-10 9 -19 20 -21 16 -3 17 -1 5 7 -12 9 -11 11 7 11 12 0 25 -5 28 -10 4 -7
39 -9 93 -5 48 2 103 5 122 5 29 1 31 3 15 10 -16 7 -12 9 20 10 22 2 45 2 50
1 6 -1 1 6 -9 14 -11 8 -24 15 -30 15 -5 0 -7 2 -5 5 3 2 22 -2 44 -9 34 -12
42 -12 62 1 13 9 23 22 23 29 0 8 5 14 11 14 6 0 8 -7 5 -17 -6 -16 -6 -16 11
-1 18 16 22 18 45 18 6 0 3 6 -7 14 -21 15 -40 12 -30 -5 4 -5 2 -9 -4 -9 -5
0 -12 6 -15 13 -3 8 -9 6 -20 -7 -9 -11 -19 -17 -22 -13 -9 9 17 32 45 40 13
3 34 1 48 -4 32 -12 107 26 98 50 -3 9 -3 12 1 8 11 -11 54 33 54 55 0 11 4
17 9 14 5 -4 8 5 6 19 -1 14 2 28 8 32 6 3 7 1 3 -5 -4 -7 -3 -12 1 -12 5 0
10 36 11 80 1 70 -1 82 -18 92 -11 7 -20 20 -20 29 0 19 -41 58 -98 93 -36 23
-46 25 -65 15 -20 -11 -21 -11 -8 4 7 10 11 18 7 18 -10 2 -25 6 -33 9 -5 1
-11 2 -15 1 -5 0 -8 3 -8 8 0 11 -39 26 -59 22 -7 -1 -10 2 -6 8 3 6 2 11 -4
11 -12 0 -25 -20 -14 -21 4 -1 18 -3 31 -4 12 -1 26 -5 29 -9 4 -3 -10 -4 -31
-2 -29 4 -37 2 -33 -9 7 -17 -10 -24 -48 -18 -16 3 -37 5 -46 6 -9 1 -16 7
-16 13 0 9 7 10 26 2 37 -15 72 -18 65 -6 -4 6 0 14 7 19 9 6 10 9 2 9 -7 0
-16 -7 -20 -15 -7 -12 -13 -12 -42 6 -18 11 -31 23 -27 26 3 3 15 -2 26 -12
13 -11 25 -15 37 -10 17 8 17 8 -1 13 -23 5 -46 26 -46 41 0 12 -41 37 -54 33
-5 -2 -16 4 -26 13 -9 8 -20 12 -25 8 -4 -5 -5 0 -2 9 3 9 -1 22 -9 28 -15 13
-17 9 -14 -27 1 -13 -3 -23 -9 -23 -5 0 -11 10 -13 23 -2 12 -9 21 -15 20 -8
-2 -10 4 -6 14 4 10 2 14 -4 10 -6 -4 -9 6 -8 23 1 17 -2 30 -6 30 -5 0 -6 7
-2 17 5 14 8 13 15 -6 4 -12 12 -20 18 -16 6 3 7 -1 4 -9 -4 -9 -1 -16 6 -16
10 0 10 -3 0 -15 -7 -9 -10 -19 -6 -22 14 -14 24 21 20 65 -2 25 -1 43 2 39 3
-3 21 15 39 41 17 26 36 47 41 47 17 0 64 42 56 50 -4 5 1 5 10 2 12 -4 15 -2
11 9 -3 7 -9 14 -13 14 -9 0 -36 -31 -32 -37 2 -3 1 -7 -2 -10 -3 -4 -6 1 -6
10 0 20 23 44 51 52 17 6 19 9 8 16 -8 5 -21 9 -29 9 -13 0 -13 -2 0 -11 13
-9 12 -10 -3 -5 -11 3 -20 0 -23 -9 -4 -8 -10 -15 -15 -15 -17 0 -8 15 22 39
l30 23 23 -21 c12 -12 25 -19 28 -15 4 3 17 0 30 -7 22 -12 22 -11 8 6 -9 11
-10 16 -2 11 6 -4 28 -2 47 5 l35 13 -28 12 -27 11 30 0 c17 1 35 -3 41 -8 7
-5 21 -6 34 -1 16 6 20 11 11 16 -9 6 -8 11 6 22 10 7 23 13 28 13 6 0 1 -7
-10 -15 -19 -14 -19 -15 10 -10 17 2 38 5 48 5 10 1 15 6 12 11 -3 6 -1 10 5
10 6 0 8 5 4 12 -7 11 13 9 80 -8 21 -5 26 -3 26 12 0 11 9 30 20 44 24 30 25
41 5 34 -11 -5 -13 -2 -9 10 8 20 -23 33 -39 17 -6 -6 -18 -11 -26 -10 -11 0
-10 3 4 9 18 8 17 9 -7 9 -32 1 -34 -2 -13 -22 18 -19 0 -28 -30 -16 -17 6
-17 8 -2 8 9 1 17 6 17 12 0 6 -8 8 -17 5 -15 -5 -15 -4 1 9 11 8 25 15 30 15
6 0 4 5 -4 10 -19 12 -30 13 -30 1z m87 -71 c1 -11 -4 -20 -13 -20 -14 0 -19
21 -7 33 11 12 19 7 20 -13z m-117 1 c0 -6 -4 -12 -8 -15 -5 -3 -9 1 -9 9 0 8
4 15 9 15 4 0 8 -4 8 -9z m-160 -46 c0 -9 -8 -18 -17 -21 -10 -3 -26 -10 -35
-15 -26 -13 -36 -11 -47 10 -9 17 -7 18 34 15 25 -3 45 0 45 6 0 5 -8 7 -17 4
-15 -5 -16 -4 -3 5 22 15 40 13 40 -4z m40 5 c-13 -9 -13 -11 0 -20 13 -8 12
-10 -5 -11 l-20 0 20 -8 c11 -5 25 -6 30 -3 6 3 4 -1 -2 -10 -7 -8 -11 -17 -8
-19 2 -3 -11 -3 -30 -1 -20 2 -37 8 -40 13 -3 4 12 6 32 4 21 -3 29 -2 18 1
-24 7 -44 24 -28 24 6 0 13 9 16 20 3 11 11 20 19 20 10 0 9 -3 -2 -10z m45
-10 c3 -5 1 -10 -4 -10 -6 0 -11 5 -11 10 0 6 2 10 4 10 3 0 8 -4 11 -10z
m-145 -90 c0 -5 -5 -10 -11 -10 -5 0 -7 5 -4 10 3 6 8 10 11 10 2 0 4 -4 4
-10z m-210 -25 c-6 -8 -8 -20 -4 -27 5 -10 4 -10 -5 -2 -13 12 -5 44 11 44 6
0 5 -6 -2 -15z m-50 -52 c0 -3 -7 -3 -15 1 -8 3 -15 1 -15 -4 0 -6 8 -10 18
-11 13 0 12 -2 -5 -9 -13 -5 -23 -16 -23 -24 0 -8 -3 -22 -7 -32 -5 -13 -3
-15 8 -9 8 5 11 4 6 0 -9 -11 -38 -16 -49 -9 -4 3 -3 15 3 27 12 22 12 22 -10
3 -35 -32 -24 -8 20 39 24 26 46 42 55 38 8 -3 14 -7 14 -10z m100 7 c0 -5 -7
-10 -16 -10 -8 0 -12 5 -9 10 3 6 10 10 16 10 5 0 9 -4 9 -10z m-65 -10 c-3
-5 -12 -10 -18 -10 -7 0 -6 4 3 10 19 12 23 12 15 0z m31 -33 c1 -12 3 -23 3
-25 1 -1 7 3 15 10 8 7 12 16 10 20 -2 3 4 5 13 4 17 -3 21 -21 6 -21 -13 0
-58 -35 -57 -43 1 -4 -5 -16 -12 -27 -8 -11 -14 -14 -14 -8 0 6 6 18 13 25 6
7 13 27 14 44 1 28 -1 31 -25 27 l-27 -4 25 15 c28 16 32 15 36 -17z m-157
-111 c-1 -17 -3 -23 -6 -13 -2 9 -8 15 -13 12 -4 -3 -7 6 -6 19 2 36 26 19 25
-18z m105 10 c-3 -15 -8 -25 -11 -23 -2 3 -1 17 3 31 3 15 8 25 11 23 2 -3 1
-17 -3 -31z m-94 -90 c0 -2 -7 -7 -16 -10 -8 -3 -12 -2 -9 4 6 10 25 14 25 6z
m25 -15 c3 -5 2 -12 -3 -15 -5 -3 -9 1 -9 9 0 17 3 19 12 6z m133 -74 c-1 -2
3 -11 11 -20 12 -15 10 -18 -10 -26 -13 -5 -27 -7 -31 -5 -12 8 4 35 18 30 8
-3 11 2 9 16 -3 11 -2 18 1 15 3 -3 4 -7 2 -10z m61 -31 c0 -7 -2 -6 -6 2 -2
6 -8 10 -12 8 -4 -3 -8 1 -8 9 0 11 4 12 14 4 7 -6 13 -17 12 -23z m-109 9 c0
-8 -4 -15 -10 -15 -5 0 -10 7 -10 15 0 8 5 15 10 15 6 0 10 -7 10 -15z m100
-44 c0 -5 -7 -12 -16 -15 -14 -5 -15 -4 -4 9 14 17 20 19 20 6z m79 -105 c0
-14 -2 -16 -6 -6 -3 8 -10 21 -16 28 -7 9 -6 11 7 6 9 -3 16 -16 15 -28z m252
1 c9 -7 14 -17 12 -23 -2 -7 8 -21 23 -33 31 -24 20 -29 -14 -5 -12 8 -22 13
-22 10 0 -2 -3 -12 -6 -20 -5 -12 -2 -15 9 -10 9 3 23 2 32 -4 12 -6 2 -8 -34
-8 -31 1 -46 5 -40 11 14 14 11 28 -6 21 -8 -3 -15 -2 -15 3 0 16 13 21 27 9
16 -13 26 -6 30 23 2 13 -1 18 -9 13 -7 -5 -8 -3 -3 6 6 10 4 12 -9 7 -10 -4
-15 -3 -11 3 8 13 16 12 36 -3z m79 -68 c0 -5 -11 2 -25 15 -14 13 -25 26 -25
30 0 3 11 -4 25 -16 14 -12 25 -25 25 -29z m36 -61 c3 -11 3 -22 0 -25 -3 -4
-6 1 -6 9 0 9 -7 18 -15 22 -8 3 -15 10 -15 15 0 17 29 0 36 -21z m-90 -5
c-10 -10 -19 5 -10 18 6 11 8 11 12 0 2 -7 1 -15 -2 -18z m58 1 c9 -8 16 -22
16 -31 0 -11 -6 -8 -20 10 -29 37 -26 52 4 21z m-7 -56 c-3 -8 -6 -5 -6 6 -1
11 2 17 5 13 3 -3 4 -12 1 -19z m26 -38 c-23 -22 -28 -18 -12 8 7 12 17 18 22
15 4 -3 0 -13 -10 -23z m-60 0 c-3 -11 -9 -17 -14 -14 -14 8 -10 34 5 34 9 0
12 -7 9 -20z m41 -45 c-4 -8 -1 -15 6 -15 6 0 8 -4 5 -10 -11 -18 -22 -11 -20
13 3 25 3 27 10 27 2 0 2 -7 -1 -15z m-60 -70 c-5 -11 -1 -14 12 -9 15 5 16 4
5 -4 -8 -6 -20 -8 -27 -5 -14 5 -14 -28 0 -38 4 -4 3 -10 -3 -13 -6 -4 -11 -4
-12 1 0 4 -2 17 -4 27 -4 22 11 56 25 56 5 0 7 -7 4 -15z m56 5 c0 -5 -5 -10
-11 -10 -5 0 -7 5 -4 10 3 6 8 10 11 10 2 0 4 -4 4 -10z m-175 -59 c-3 -6 -11
-11 -17 -11 -6 0 -6 6 2 15 14 17 26 13 15 -4z m-97 -42 c2 -18 1 -21 -7 -9
-5 8 -8 17 -5 21 2 4 -1 10 -6 12 -6 3 -5 4 2 3 7 -1 14 -13 16 -27z m-381 0
c2 -16 -1 -19 -9 -11 -5 5 -7 15 -4 21 10 15 12 14 13 -10z m538 11 c3 -6 -1
-7 -9 -4 -18 7 -21 14 -7 14 6 0 13 -4 16 -10z m-580 -19 c-3 -6 -11 -11 -16
-11 -5 0 -4 6 3 14 14 16 24 13 13 -3z m205 -26 c0 -10 -9 -15 -27 -14 -24 2
-25 2 -5 6 12 2 22 9 22 14 0 5 2 9 5 9 3 0 5 -7 5 -15z m229 -29 c10 -12 8
-13 -8 -9 -12 3 -18 9 -15 14 7 12 10 11 23 -5z m-359 -6 c-8 -5 -19 -10 -25
-10 -5 0 -3 5 5 10 8 5 20 10 25 10 6 0 3 -5 -5 -10z m70 0 c0 -5 -12 -10 -27
-9 -25 0 -26 1 -8 9 27 12 35 12 35 0z m188 2 c21 -14 -33 -32 -86 -31 -31 1
-36 3 -17 6 81 9 99 15 84 24 -8 5 -9 9 -4 9 6 0 16 -4 23 -8z m-65 -9 c-13
-2 -33 -2 -45 0 -13 2 -3 4 22 4 25 0 35 -2 23 -4z m-93 -24 c17 -1 12 -4 -15
-9 -22 -4 -42 -4 -45 0 -3 4 -14 10 -25 14 -11 3 -2 3 20 1 22 -3 51 -5 65 -6z
m73 -16 c-7 -2 -21 -2 -30 0 -10 3 -4 5 12 5 17 0 24 -2 18 -5z"/>
<path d="M7655 1347 c-10 -8 -15 -19 -11 -26 4 -6 2 -18 -4 -26 -8 -10 -9 -15
-2 -15 12 0 27 39 18 47 -3 3 2 12 12 19 23 18 11 18 -13 1z"/>
<path d="M11244 1615 c-10 -8 -14 -14 -9 -14 6 0 19 6 29 14 11 8 15 15 10 15
-6 0 -19 -7 -30 -15z"/>
<path d="M11304 1622 c-6 -4 -16 -16 -23 -27 -10 -16 -11 -16 -7 -2 5 15 3 16
-17 6 -34 -18 -59 -51 -54 -71 3 -10 1 -16 -4 -12 -5 3 -9 -1 -10 -8 -1 -30
-10 -63 -19 -72 -4 -4 -6 -15 -3 -24 4 -10 2 -13 -5 -8 -16 10 -14 -5 3 -28 8
-11 15 -31 14 -45 0 -21 -3 -19 -12 13 l-12 39 -14 -26 c-7 -14 -15 -34 -16
-44 -1 -10 -5 -26 -9 -36 -11 -24 1 -70 17 -61 9 5 9 4 0 -6 -11 -12 -15 -11
-28 6 -13 17 -14 17 -15 2 0 -27 0 -25 -15 -55 -9 -17 -11 -29 -5 -31 18 -6
-1 -22 -26 -22 -14 0 -24 -6 -24 -14 0 -18 -50 -31 -64 -16 -8 8 -7 10 4 5 9
-3 24 1 35 9 16 12 17 15 4 16 -9 0 -19 -3 -23 -7 -7 -8 -11 -9 -37 -12 -6 0
-9 -8 -5 -16 6 -18 -3 -47 -13 -40 -4 2 -8 -2 -8 -9 0 -9 7 -12 16 -8 13 5 14
3 3 -10 -10 -12 -9 -18 3 -28 10 -8 15 -9 15 -2 0 6 7 9 15 6 8 -4 12 -10 9
-15 -3 -5 5 -8 17 -6 18 2 22 -4 25 -33 2 -19 7 -46 10 -60 13 -47 11 -95 -4
-120 -20 -32 -43 -54 -63 -62 -13 -5 -16 -19 -14 -62 1 -31 -2 -56 -6 -56 -4
0 -6 -8 -4 -18 13 -64 15 -85 6 -77 -5 6 -14 26 -19 45 -18 62 -11 -3 7 -73 9
-37 21 -64 25 -60 4 4 4 -1 0 -11 -5 -14 -9 -15 -15 -4 -5 7 -9 9 -9 3 0 -5
-7 -1 -15 9 -8 11 -15 14 -15 8 0 -7 9 -20 20 -29 11 -10 20 -27 20 -40 0 -12
5 -25 12 -29 6 -4 8 -3 5 3 -7 11 29 11 39 0 4 -4 22 -7 40 -7 24 0 37 6 46
23 17 31 16 46 -6 90 -15 31 -17 43 -7 63 6 14 7 23 2 19 -6 -3 -12 19 -14 52
-3 52 -4 51 -4 -15 0 -94 -10 -104 -12 -11 -2 75 17 126 44 115 10 -3 13 4 10
30 -2 20 0 33 3 30 6 -6 24 31 36 75 6 19 5 21 -4 9 -10 -13 -11 -12 -6 3 3
10 6 26 6 35 0 13 2 14 9 4 6 -10 10 -7 13 12 3 14 1 23 -3 20 -5 -3 -9 2 -9
10 0 9 5 16 10 16 6 0 10 5 10 11 0 8 -5 8 -15 -1 -8 -7 -15 -21 -15 -32 0
-16 -2 -17 -14 -6 -13 11 -12 15 7 30 14 11 18 21 12 25 -12 9 -15 54 -3 47 4
-3 8 -14 8 -25 0 -10 5 -19 10 -19 12 0 12 7 1 35 -9 21 3 45 22 45 7 0 7 -4
-1 -12 -14 -14 -16 -52 -2 -43 6 3 10 14 10 25 0 24 19 30 103 30 50 0 67 -3
57 -10 -13 -8 -12 -10 3 -10 9 0 17 5 17 10 0 6 9 10 21 10 11 0 17 -4 14 -10
-4 -6 7 -10 25 -10 17 0 41 -5 52 -11 15 -8 19 -8 14 0 -8 12 7 15 18 4 17
-17 65 -10 87 13 33 35 33 71 1 88 -15 8 -26 18 -25 23 2 4 -6 8 -16 8 -11 0
-23 3 -27 8 -4 4 -16 7 -28 7 -20 0 -20 0 0 -15 18 -14 18 -15 -6 -6 -14 5
-24 14 -23 20 2 6 -10 8 -30 6 -104 -14 -165 -14 -183 0 -23 17 -38 19 -28 4
3 -6 0 -15 -7 -20 -23 -14 -30 -10 -20 10 6 10 7 21 4 25 -3 3 5 6 18 7 l24 1
-25 8 c-25 8 -25 8 5 9 22 1 26 4 17 13 -17 17 -15 33 2 19 12 -10 13 -8 9 8
-3 12 -1 21 5 21 11 0 27 60 24 93 0 9 3 15 7 12 11 -6 21 32 14 51 -3 8 -10
14 -16 14 -7 0 -7 -4 1 -12 17 -17 15 -27 -6 -21 -18 4 -27 33 -10 33 4 0 8 7
8 17 0 13 4 11 20 -7 23 -26 27 -15 5 14 -18 23 -19 36 -4 36 5 0 8 -4 5 -9
-3 -5 1 -15 10 -22 8 -7 14 -8 12 -3 -1 5 3 19 10 31 6 12 9 29 5 39 -4 11 -3
15 4 11 14 -9 36 54 27 76 -3 10 -16 17 -29 17 -13 0 -25 7 -29 15 -4 11 1 15
17 15 18 0 19 2 7 10 -18 12 -22 12 -36 2z m-54 -77 c-6 -30 -8 -33 -9 -13 -1
25 8 62 14 56 2 -2 -1 -21 -5 -43z m29 -30 c0 -5 -4 -3 -9 5 -5 8 -9 22 -9 30
0 16 17 -16 18 -35z m-52 3 c-3 -8 -6 -5 -6 6 -1 11 2 17 5 13 3 -3 4 -12 1
-19z m113 -9 c0 -6 -4 -7 -10 -4 -5 3 -10 11 -10 16 0 6 5 7 10 4 6 -3 10 -11
10 -16z m-44 -14 c-8 -8 -20 -15 -27 -15 -7 0 -4 6 7 15 25 19 40 19 20 0z
m14 -25 c0 -5 -5 -10 -11 -10 -5 0 -7 5 -4 10 3 6 8 10 11 10 2 0 4 -4 4 -10z
m23 -20 c-3 -11 -7 -20 -9 -20 -2 0 -4 9 -4 20 0 11 4 20 9 20 5 0 7 -9 4 -20z
m-113 4 c0 -8 -19 -13 -24 -6 -3 5 1 9 9 9 8 0 15 -2 15 -3z m-28 -46 c-5 -21
-6 -21 -12 -2 -8 21 -3 37 10 29 4 -3 6 -15 2 -27z m6 -59 c-3 -8 -7 -3 -11
10 -4 17 -3 21 5 13 5 -5 8 -16 6 -23z m-47 -26 c-8 -15 -10 -15 -11 -2 0 17
10 32 18 25 2 -3 -1 -13 -7 -23z m46 -25 c-3 -8 -6 -5 -6 6 -1 11 2 17 5 13 3
-3 4 -12 1 -19z m44 -20 c10 -18 9 -20 -5 -15 -16 6 -19 -6 -18 -75 0 -17 -4
-25 -13 -24 -23 3 -31 16 -16 26 8 4 15 23 17 42 3 29 2 30 -6 10 -6 -13 -14
-20 -20 -17 -7 4 -7 12 0 24 5 10 7 21 4 24 -3 3 3 3 15 0 15 -4 21 -1 21 11
0 22 7 20 21 -6z m-4 -70 c-3 -8 -6 -5 -6 6 -1 11 2 17 5 13 3 -3 4 -12 1 -19z
m-134 -48 c-19 -22 -26 -21 -17 4 3 9 12 16 20 16 11 0 10 -4 -3 -20z m33 -38
c1 -24 -2 -29 -11 -22 -16 13 -17 62 -1 57 6 -2 11 -18 12 -35z m-56 -62 c-12
-9 -20 -25 -18 -35 3 -21 -11 -25 -53 -14 -15 4 -32 3 -38 -1 -8 -4 3 -10 27
-14 36 -5 40 -9 37 -31 -1 -14 -6 -29 -10 -33 -5 -4 -6 0 -3 8 9 26 -17 50
-56 52 -34 1 -35 2 -16 15 15 11 18 19 11 32 -9 15 -6 17 20 13 16 -2 31 -8
34 -12 2 -4 -8 -5 -23 -3 -22 3 -20 1 8 -9 32 -12 35 -12 38 6 2 10 -2 23 -10
28 -9 6 -6 7 9 3 17 -5 22 -1 25 17 2 13 9 22 16 21 6 -2 13 5 13 15 1 9 4 4
6 -12 4 -22 -1 -34 -17 -46z m275 0 c3 -5 1 -10 -4 -10 -6 0 -11 5 -11 10 0 6
2 10 4 10 3 0 8 -4 11 -10z m181 1 c-3 -5 2 -15 11 -22 15 -12 16 -12 10 4 -7
20 -3 21 24 6 11 -5 17 -14 14 -20 -4 -5 -1 -9 4 -9 6 0 11 -5 11 -10 0 -7 -7
-7 -21 1 -18 9 -19 13 -8 21 12 8 11 9 -1 5 -8 -2 -15 -11 -15 -20 0 -9 -8
-24 -18 -34 -9 -9 -17 -12 -17 -6 0 6 5 13 12 15 7 3 9 11 4 24 -8 19 -8 19
-16 -1 -7 -18 -8 -19 -15 -3 -5 13 -14 16 -34 12 -22 -4 -23 -4 -8 6 9 6 26 8
37 5 12 -4 20 -2 20 6 0 8 -14 10 -45 6 -57 -6 -50 4 8 14 23 3 43 7 45 8 2 0
1 -3 -2 -8z m-246 -26 l25 -14 -37 -1 c-48 0 -75 10 -56 21 19 12 39 10 68 -6z
m170 -25 c15 -4 -1 -7 -41 -6 -37 1 -65 4 -63 8 2 4 -6 9 -18 11 -13 3 4 2 37
-1 33 -3 71 -8 85 -12z m-280 1 c0 -6 17 -8 38 -6 20 3 28 2 17 -1 -11 -4 -25
-11 -32 -16 -8 -7 -19 -3 -34 11 -19 18 -20 21 -6 21 9 0 17 -4 17 -9z m-30
-17 c0 -3 -7 -12 -15 -20 -12 -13 -15 -13 -15 -1 0 7 3 17 7 20 8 8 23 9 23 1z
m367 -24 c4 -13 3 -13 -5 -1 -8 11 -14 12 -24 3 -8 -6 -19 -7 -27 -3 -7 5 -23
7 -35 5 -16 -4 -17 -3 -4 3 30 14 91 9 95 -7z m68 4 c-9 -9 -19 -13 -23 -10
-3 4 0 11 8 16 24 15 33 11 15 -6z m-489 -200 c1 -9 0 -13 -4 -10 -3 4 -7 14
-8 22 -1 9 0 13 4 10 3 -4 7 -14 8 -22z m-19 -76 c-3 -8 -6 -5 -6 6 -1 11 2
17 5 13 3 -3 4 -12 1 -19z m-23 -32 c-3 -15 -8 -25 -11 -23 -2 3 -1 17 3 31 3
15 8 25 11 23 2 -3 1 -17 -3 -31z m23 -18 c-3 -7 -5 -2 -5 12 0 14 2 19 5 13
2 -7 2 -19 0 -25z m-98 -106 c-1 -20 -3 -22 -6 -8 -4 15 -7 16 -14 5 -7 -11
-9 -9 -9 7 0 11 3 24 6 27 12 12 24 -4 23 -31z m33 -116 c2 -19 0 -32 -4 -30
-8 5 -12 64 -4 64 2 0 6 -15 8 -34z m48 0 c0 -3 -4 -8 -10 -11 -5 -3 -10 -1
-10 4 0 6 5 11 10 11 6 0 10 -2 10 -4z m14 -42 c9 -25 2 -26 -17 -4 -13 16
-14 20 -3 20 8 0 17 -7 20 -16z m-12 -53 c1 -13 -1 -26 -7 -28 -6 -1 -10 15
-10 37 -1 41 10 35 17 -9z m-73 30 c18 -12 6 -30 -19 -28 -20 1 -26 17 -13 30
8 9 15 9 32 -2z"/>
<path d="M8351 1564 c0 -11 3 -14 6 -6 3 7 2 16 -1 19 -3 4 -6 -2 -5 -13z"/>
<path d="M12994 1509 c-14 -22 -23 -43 -20 -47 3 -3 7 -3 9 -1 2 2 15 21 30
41 29 40 32 48 17 48 -5 0 -21 -18 -36 -41z"/>
<path d="M13007 1463 c-4 -3 -7 -11 -7 -17 0 -6 5 -5 12 2 6 6 9 14 7 17 -3 3
-9 2 -12 -2z"/>
<path d="M7901 1400 c-5 -3 -2 -11 5 -18 12 -11 15 -10 20 2 3 9 10 13 15 10
5 -3 9 -1 9 5 0 10 -34 11 -49 1z"/>
<path d="M9426 1218 c5 -8 2 -9 -9 -5 -23 9 -21 0 2 -13 11 -5 26 -8 34 -5 15
6 19 35 5 35 -4 0 -8 -7 -8 -15 0 -8 -4 -15 -10 -15 -5 0 -7 7 -4 15 4 8 1 15
-6 15 -6 0 -8 -5 -4 -12z"/>
<path d="M8651 1193 c-1 -18 4 -33 9 -33 12 0 12 17 0 45 -7 17 -9 15 -9 -12z"/>
<path d="M2277 1189 c-153 -36 -243 -166 -207 -298 18 -69 80 -120 243 -201
191 -95 237 -141 237 -235 0 -55 -17 -92 -63 -132 -98 -86 -311 -61 -424 50
l-43 41 0 -76 0 -76 93 -23 c128 -30 278 -31 367 0 150 51 229 141 230 259 0
114 -42 158 -261 272 -195 102 -224 130 -223 216 0 65 21 98 85 134 37 21 57
24 129 24 91 0 161 -23 208 -67 l23 -21 -3 69 -3 70 -175 2 c-96 0 -192 -3
-213 -8z"/>
<path d="M4130 1189 c-74 -4 -165 -7 -202 -8 l-67 -1 17 -37 c15 -34 17 -82
17 -428 0 -378 -1 -391 -21 -433 l-21 -42 113 0 c63 0 114 1 114 3 0 1 -7 20
-15 42 -10 29 -14 90 -15 228 l0 189 33 -7 c57 -12 82 -37 245 -236 89 -107
172 -201 187 -207 14 -7 67 -12 117 -12 l91 0 -48 42 c-36 32 -297 332 -373
429 -10 14 -4 20 52 48 153 75 219 202 166 318 -23 53 -93 100 -159 108 -84
11 -95 11 -231 4z m100 -60 c116 -18 155 -62 154 -169 -1 -63 -29 -127 -70
-159 -39 -30 -118 -51 -196 -51 l-68 0 0 195 0 195 58 0 c31 0 86 -5 122 -11z"/>
<path d="M5015 1189 c-77 -4 -168 -7 -202 -8 l-62 -1 17 -37 c15 -34 17 -82
17 -428 0 -378 -1 -391 -21 -433 l-21 -42 113 0 c63 0 114 1 114 3 0 1 -7 20
-15 42 -10 29 -14 90 -15 227 l0 188 33 -7 c64 -12 83 -30 321 -326 43 -54 91
-104 107 -112 18 -10 58 -15 118 -15 l90 0 -51 47 c-39 37 -295 333 -366 424
-10 14 -4 20 52 48 153 75 219 202 166 318 -23 53 -93 100 -159 108 -84 11
-95 11 -236 4z m146 -69 c19 -5 48 -24 65 -41 27 -29 29 -35 29 -113 0 -72 -3
-87 -25 -119 -14 -20 -47 -49 -75 -64 -44 -24 -61 -28 -137 -28 -48 0 -88 3
-88 8 0 4 0 91 0 194 l0 186 98 -6 c53 -4 113 -11 133 -17z"/>
<path d="M7555 1190 c-3 -5 -1 -10 4 -10 6 0 11 -9 11 -21 0 -11 -4 -18 -8
-15 -5 3 -6 -9 -4 -27 l5 -32 13 37 c17 50 1 104 -21 68z"/>
<path d="M12911 1183 c0 -5 7 -24 15 -43 l14 -35 -5 34 c-3 18 -5 37 -5 42 0
5 -4 9 -10 9 -5 0 -10 -3 -9 -7z"/>
<path d="M2820 1176 c0 -3 5 -17 12 -33 9 -19 14 -140 18 -394 l5 -366 30 -49
c58 -92 206 -138 376 -115 86 12 204 58 235 92 27 30 34 23 34 -31 l0 -50 69
0 c38 0 82 3 99 6 31 6 31 6 14 32 -15 24 -17 67 -17 437 0 364 2 414 17 443
l16 32 -113 0 -113 0 16 -32 c35 -68 25 -634 -13 -724 -38 -92 -114 -129 -250
-122 -145 8 -223 69 -246 192 -6 37 -9 167 -7 340 3 246 5 285 21 314 l18 32
-111 0 c-60 0 -110 -2 -110 -4z"/>
<path d="M5658 1148 c15 -29 17 -79 17 -433 0 -356 -2 -404 -17 -438 l-17 -37
327 2 327 3 17 63 c9 34 14 62 12 62 -3 0 -26 -11 -52 -24 -74 -37 -144 -49
-296 -50 l-141 -1 -3 198 -2 197 32 0 c18 0 84 5 147 10 90 7 126 15 168 35
29 15 53 30 53 33 0 4 -90 6 -200 4 l-200 -3 0 175 0 176 133 0 c131 0 233
-16 264 -42 18 -15 20 -11 15 50 l-4 52 -298 0 -298 0 16 -32z"/>
<path d="M6339 1125 c116 -128 259 -382 282 -503 16 -86 8 -307 -14 -350 l-15
-32 109 0 c60 0 109 1 109 3 0 1 -7 24 -15 51 -17 57 -20 226 -5 305 17 92 52
153 204 356 82 110 153 206 159 213 7 9 -14 12 -99 12 -84 0 -105 -3 -96 -12
18 -18 14 -77 -8 -126 -10 -23 -63 -109 -116 -190 l-97 -147 -25 55 c-105 223
-178 364 -202 390 -27 29 -30 30 -125 30 l-97 0 51 -55z"/>
<path d="M7690 1175 c0 -5 5 -17 10 -25 5 -8 10 -10 10 -5 0 6 -5 17 -10 25
-5 8 -10 11 -10 5z"/>
<path d="M10225 1101 c6 -10 -18 -20 -63 -26 -15 -2 -29 -4 -31 -4 -2 -1 3 -9
10 -18 12 -15 12 -16 -4 -10 -12 5 -16 3 -11 -5 5 -7 2 -10 -7 -6 -33 11 -59
-64 -35 -101 7 -10 6 -12 -4 -6 -10 6 -12 4 -7 -8 4 -11 2 -14 -9 -10 -10 3
-12 0 -8 -10 3 -8 1 -18 -4 -21 -5 -3 -8 6 -6 21 1 14 9 30 16 34 10 7 9 9 -5
9 -10 0 -15 5 -12 10 4 6 10 8 14 6 3 -3 7 4 7 15 0 10 -4 19 -8 19 -4 0 -8
-7 -8 -15 0 -8 -3 -15 -8 -15 -4 0 -13 -10 -21 -22 -13 -21 -13 -22 2 -9 10 7
17 9 17 3 0 -15 -26 -33 -35 -24 -5 4 -5 2 -1 -5 4 -7 0 -23 -8 -35 -9 -13
-16 -38 -18 -56 -1 -17 -6 -32 -10 -32 -4 0 -8 -4 -8 -10 0 -5 7 -10 16 -10
11 0 14 -5 10 -16 -3 -9 -6 -21 -7 -27 -1 -7 -5 -1 -9 13 -8 24 -8 23 -9 -7
-1 -24 3 -33 15 -33 10 0 12 -5 7 -12 -4 -7 -9 -22 -10 -33 -3 -16 -1 -17 7
-5 6 9 10 10 10 3 0 -6 -8 -19 -17 -29 -14 -13 -18 -14 -22 -3 -2 8 -9 18 -15
22 -7 6 -4 7 7 3 9 -3 17 -1 17 4 0 6 -17 10 -37 10 -23 0 -33 -3 -25 -8 7 -5
-9 -8 -38 -8 -27 1 -45 3 -40 4 16 6 12 22 -6 22 -8 0 -13 4 -10 9 4 5 -3 7
-14 4 -11 -3 -22 -9 -25 -13 -2 -4 -16 -5 -31 -2 -19 3 -24 9 -21 23 3 11 1
19 -4 19 -5 0 -9 -4 -9 -10 0 -5 -6 -10 -14 -10 -16 0 -26 -21 -26 -57 0 -28
10 -26 14 1 1 9 6 15 12 14 5 -2 7 -7 6 -13 -12 -34 -10 -44 11 -42 12 1 28 7
35 13 10 10 8 14 -7 19 -23 7 -17 35 6 35 12 0 13 -3 3 -15 -10 -12 -7 -15 14
-21 14 -3 26 -10 26 -16 0 -5 -5 -6 -11 -3 -5 4 -18 -2 -28 -14 -13 -15 -21
-17 -29 -9 -8 8 -12 9 -12 1 0 -15 34 -27 38 -14 2 6 8 11 13 11 4 0 6 -6 3
-13 -3 -8 5 -13 23 -15 16 -1 40 -7 55 -13 14 -6 35 -9 45 -6 11 3 7 5 -12 7
-26 1 -27 3 -10 10 14 5 26 2 42 -12 16 -15 33 -19 66 -17 25 2 52 -2 59 -9
11 -9 17 -9 26 0 16 16 15 28 -3 28 -10 0 -12 -6 -8 -17 6 -17 6 -17 -10 -1
-18 18 -22 29 -9 27 20 -3 32 2 26 12 -4 8 -1 8 14 0 12 -6 19 -17 16 -25 -3
-7 2 -21 12 -30 12 -13 14 -20 5 -29 -8 -8 -11 -6 -11 9 0 16 -2 17 -11 4 -8
-12 -9 -9 -4 10 6 24 5 24 -9 6 -14 -17 -11 -22 29 -63 25 -24 49 -42 54 -39
5 3 11 -1 15 -9 3 -9 12 -12 22 -8 12 4 15 3 10 -5 -5 -8 -2 -10 10 -5 15 5
15 7 0 15 -9 5 -21 6 -26 3 -6 -3 -10 -1 -10 5 0 20 31 23 44 5 7 -10 17 -16
22 -13 5 3 23 -1 39 -9 27 -13 21 -13 -25 -2 -8 2 -14 -1 -13 -8 2 -7 -4 -10
-15 -7 -14 5 -14 4 2 -6 14 -9 20 -10 26 -1 5 9 10 8 19 -2 6 -8 21 -13 31
-10 11 3 20 0 20 -6 0 -6 12 -10 28 -10 23 2 24 2 5 6 -13 2 -23 9 -23 14 0
14 32 10 54 -6 14 -11 40 -13 105 -10 99 6 124 12 115 27 -5 7 -1 9 9 5 31
-12 43 64 14 90 -15 14 -43 17 -178 18 -121 0 -162 3 -168 13 -7 12 -25 19
-55 21 -5 1 -6 4 -3 8 9 8 -12 33 -27 33 -6 0 -4 -5 4 -10 12 -8 12 -10 1 -10
-11 0 -11 -3 -1 -15 10 -12 10 -15 -1 -15 -11 0 -11 -2 1 -10 8 -5 11 -10 5
-10 -5 0 -17 5 -25 10 -12 8 -12 10 -1 10 11 0 11 3 1 15 -9 11 -9 15 -1 15 7
0 10 4 6 9 -3 5 -1 12 5 16 6 4 8 11 5 16 -4 5 2 8 12 7 10 -1 37 6 61 16 36
16 41 21 30 34 -11 13 -10 14 9 8 22 -7 89 25 76 37 -10 11 -25 8 -18 -3 4 -6
-1 -7 -11 -3 -11 4 -15 3 -10 -5 3 -6 3 -13 -2 -16 -10 -6 -10 60 0 69 4 4 15
2 25 -4 14 -8 14 -10 3 -11 -13 0 -13 -1 0 -10 20 -13 31 -12 28 1 -2 6 3 14
11 17 9 3 11 0 6 -8 -4 -7 4 -5 18 5 23 14 50 54 28 41 -5 -3 -15 2 -22 11
-12 15 -12 16 5 10 10 -4 25 -2 32 4 12 10 13 8 8 -7 -5 -18 -5 -18 6 -1 7 10
10 21 7 23 -3 3 6 16 19 29 13 13 24 30 24 37 0 10 -2 10 -9 0 -6 -11 -10 -10
-15 4 -6 15 -9 16 -15 5 -5 -8 -7 7 -3 35 5 47 23 76 31 52 2 -7 -1 -14 -7
-16 -17 -5 -15 -49 3 -56 12 -4 14 0 9 21 -5 18 -3 24 4 19 8 -5 10 -1 6 11
-19 58 -28 73 -45 73 -12 0 -21 10 -25 25 -3 14 -10 23 -14 20 -5 -3 -11 1
-13 7 -4 10 -8 9 -16 -2 -9 -12 -11 -13 -11 -1 0 8 -3 12 -6 9 -3 -4 -22 0
-41 8 -19 9 -38 13 -41 10 -2 -3 6 -10 19 -15 17 -7 19 -10 7 -10 -10 -1 -18
-8 -18 -16 0 -15 16 -19 53 -16 11 2 17 -5 17 -17 0 -26 -11 -34 -24 -17 -6 8
-23 16 -38 17 -15 1 -24 6 -21 11 2 4 -8 5 -24 2 -21 -4 -23 -3 -8 3 18 8 17
10 -10 20 l-30 10 27 1 c15 1 30 -4 34 -10 4 -8 9 -7 14 2 10 14 -12 39 -34
39 -8 0 -17 4 -20 8 -9 14 42 12 80 -4 52 -22 72 -25 80 -12 4 6 3 8 -3 5 -6
-4 -21 2 -33 13 -15 13 -31 18 -46 14 -15 -4 -24 -2 -24 5 0 7 -20 11 -51 11
-28 0 -48 -4 -44 -9z m-12 -37 c-38 -16 -44 -28 -10 -19 17 5 19 4 7 -4 -8 -6
-23 -8 -32 -5 -12 4 -18 0 -18 -11 0 -9 -5 -13 -10 -10 -8 5 -8 11 -1 19 7 9
7 16 -1 24 -8 8 -6 10 8 6 11 -3 30 -1 44 5 39 15 49 11 13 -5z m40 -51 c-7
-2 -19 -2 -25 0 -7 3 -2 5 12 5 14 0 19 -2 13 -5z m63 -42 c-10 -15 22 -33 46
-27 13 3 17 3 10 0 -10 -5 -9 -11 5 -27 17 -19 17 -20 1 -14 -14 5 -18 1 -18
-14 0 -11 4 -18 9 -14 15 9 31 -28 20 -46 -12 -20 -11 -32 3 -23 7 4 8 3 4 -4
-4 -6 -13 -9 -21 -5 -18 6 -19 -1 -3 -27 16 -26 2 -39 -17 -14 -19 25 -19 24
9 57 15 18 22 35 18 45 -5 14 -7 12 -12 -8 -4 -14 -13 -24 -20 -22 -8 2 -10
-3 -6 -14 4 -11 2 -15 -8 -11 -15 6 -40 -16 -30 -26 12 -12 -7 -28 -21 -17 -9
8 -14 6 -19 -5 -3 -8 -9 -14 -13 -13 -12 4 -140 -79 -146 -94 -2 -7 -8 -10
-12 -5 -5 4 2 18 15 32 13 14 18 25 12 25 -7 0 -12 14 -11 33 l1 32 8 -30 c7
-29 8 -29 10 10 1 22 2 49 1 60 -2 17 0 17 8 5 8 -11 11 -6 11 23 0 23 4 36
10 32 6 -3 10 -4 10 -1 0 2 3 13 6 23 5 15 4 15 -5 3 -6 -8 -11 -10 -11 -5 0
14 15 36 26 38 5 1 8 7 8 14 -1 6 4 9 11 7 7 -3 15 2 19 11 3 9 10 13 16 10 5
-3 10 -1 10 4 0 6 16 11 36 11 19 0 33 -4 30 -9z m-176 -11 c13 -8 13 -10 -2
-10 -9 0 -20 5 -23 10 -8 13 5 13 25 0z m370 0 c0 -5 -7 -7 -15 -4 -8 4 -15 8
-15 10 0 2 7 4 15 4 8 0 15 -4 15 -10z m-57 -16 c7 -8 -3 -34 -13 -34 -4 0
-10 9 -13 20 -5 19 12 28 26 14z m-365 -89 c-3 -3 -9 2 -12 12 -6 14 -5 15 5
6 7 -7 10 -15 7 -18z m32 -39 c0 -39 -6 -30 -13 19 -4 27 -3 35 3 25 5 -8 10
-28 10 -44z m17 32 c-3 -8 -6 -5 -6 6 -1 11 2 17 5 13 3 -3 4 -12 1 -19z m-40
-40 c-3 -7 -5 -2 -5 12 0 14 2 19 5 13 2 -7 2 -19 0 -25z m333 13 c0 -6 -4
-13 -10 -16 -5 -3 -10 1 -10 9 0 9 5 16 10 16 6 0 10 -4 10 -9z m-412 -41 c-1
-16 -5 -30 -9 -30 -8 0 -18 48 -11 55 13 13 22 2 20 -25z m81 -33 c-1 -31 -1
-31 -9 -7 -11 36 -11 52 0 45 6 -3 10 -21 9 -38z m366 33 c-3 -5 -11 -10 -16
-10 -6 0 -7 5 -4 10 3 6 11 10 16 10 6 0 7 -4 4 -10z m-405 -10 c0 -5 -5 -10
-11 -10 -5 0 -7 5 -4 10 3 6 8 10 11 10 2 0 4 -4 4 -10z m270 -24 c0 -26 -40
-39 -77 -27 -8 3 -18 -5 -15 -12 1 -5 -3 -5 -9 -1 -6 3 -14 3 -18 -2 -10 -14
-81 -66 -81 -59 0 9 27 35 37 35 4 1 23 14 42 30 23 19 41 27 58 24 17 -3 22
-1 17 7 -4 7 -3 9 4 5 6 -3 13 -2 17 4 9 15 25 12 25 -4z m105 -34 c-2 -2 -15
-5 -29 -6 -29 -4 -32 5 -14 33 11 18 12 18 29 -3 9 -11 16 -22 14 -24z m-364
15 c-10 -9 -11 -8 -5 6 3 10 9 15 12 12 3 -3 0 -11 -7 -18z m-60 4 c-11 -7
-10 -10 3 -18 13 -7 15 -17 10 -37 -9 -39 -26 -27 -30 22 -3 35 -1 42 14 42
13 0 14 -2 3 -9z m203 -69 c-11 -11 -28 -22 -39 -26 -11 -3 -5 -4 13 -2 17 1
32 -1 32 -6 0 -4 -8 -8 -17 -8 -16 0 -16 -2 -3 -11 12 -8 10 -9 -7 -4 -23 6
-33 -9 -13 -18 6 -3 5 -4 -2 -3 -7 2 -13 9 -13 17 0 8 -4 19 -7 25 -4 6 8 22
30 36 42 28 52 28 26 0z m-130 -3 c-3 -6 1 -18 10 -28 15 -16 15 -20 2 -30 -8
-7 -20 -10 -25 -7 -12 8 -10 66 2 66 5 0 5 5 1 12 -4 7 -3 8 5 4 6 -4 9 -12 5
-17z m-294 -19 c-20 -13 -33 -13 -25 0 3 6 14 10 23 10 15 0 15 -2 2 -10z
m462 -17 c-10 -4 -10 -8 -1 -20 7 -8 8 -13 3 -11 -5 1 -20 -3 -34 -10 l-25
-13 24 20 c13 12 20 21 17 21 -4 0 -4 5 -1 10 3 6 12 10 18 9 8 0 8 -2 -1 -6z
m-332 -23 c0 -5 -4 -10 -10 -10 -5 0 -10 5 -10 10 0 6 5 10 10 10 6 0 10 -4
10 -10z m-71 -42 c13 -4 13 -5 0 -10 -9 -4 -21 2 -29 15 -11 19 -11 20 1 11 8
-6 21 -13 28 -16z m293 -26 c-12 -2 -20 -8 -17 -13 4 -5 1 -9 -4 -9 -14 0 -14
6 0 31 9 17 13 18 26 7 15 -12 14 -13 -5 -16z m-149 11 c-7 -2 -19 -2 -25 0
-7 3 -2 5 12 5 14 0 19 -2 13 -5z m-5 -20 c-10 -2 -26 -2 -35 0 -10 3 -2 5 17
5 19 0 27 -2 18 -5z m242 -43 c0 -5 -2 -10 -4 -10 -3 0 -8 5 -11 10 -3 6 -1
10 4 10 6 0 11 -4 11 -10z m34 -49 c-8 -10 -24 14 -24 37 l1 27 13 -30 c7 -16
12 -32 10 -34z m-140 24 c-4 -8 -1 -15 5 -15 6 0 11 5 11 11 0 5 4 8 9 5 14
-9 10 -53 -5 -53 -10 0 -10 5 -2 21 10 20 10 20 -8 5 -18 -15 -20 -15 -39 3
-17 16 -17 18 -2 13 12 -5 17 -2 17 9 0 9 4 16 10 16 5 0 7 -7 4 -15z m491
-15 c18 -20 18 -21 -1 -14 -16 7 -17 5 -7 -8 7 -8 10 -18 6 -21 -3 -4 0 -7 8
-7 11 0 11 -2 -1 -10 -8 -5 -26 -10 -39 -10 -18 0 -21 -3 -13 -13 8 -10 6 -13
-11 -14 -17 -2 -19 0 -7 7 13 8 13 10 1 10 -11 0 -10 4 4 14 17 12 14 13 -26
9 -29 -3 -41 -1 -34 6 6 5 24 11 40 13 22 2 29 8 27 20 -1 9 2 19 8 23 6 4 7
-1 3 -11 -4 -12 -2 -15 8 -12 8 3 13 13 13 22 -2 20 -1 20 21 -4z m-137 5 c-3
-3 -25 -8 -49 -11 -24 -3 -49 -7 -56 -9 -7 -2 -15 0 -18 5 -3 5 5 11 17 13 34
6 112 8 106 2z m-131 -31 c-3 -3 -12 -4 -19 -1 -8 3 -5 6 6 6 11 1 17 -2 13
-5z m126 -1 c-7 -2 -21 -2 -30 0 -10 3 -4 5 12 5 17 0 24 -2 18 -5z m-128 -27
c-16 -7 -34 -11 -39 -8 -12 7 21 20 49 21 15 0 12 -3 -10 -13z m135 -1 c0 -11
-12 -15 -47 -15 -27 0 -66 -5 -88 -10 -22 -5 -41 -7 -43 -5 -8 8 85 28 126 27
26 -1 41 2 37 8 -3 6 -1 10 4 10 6 0 11 -7 11 -15z m43 -22 c-7 -2 -19 -2 -25
0 -7 3 -2 5 12 5 14 0 19 -2 13 -5z m-100 -13 c8 0 8 -3 0 -11 -9 -9 -16 -7
-30 7 -17 17 -17 18 0 11 10 -4 24 -7 30 -7z m92 -10 c-3 -5 -13 -10 -21 -10
-8 0 -14 5 -14 10 0 6 9 10 21 10 11 0 17 -4 14 -10z"/>
<path d="M10278 963 c7 -3 16 -2 19 1 4 3 -2 6 -13 5 -11 0 -14 -3 -6 -6z"/>
<path d="M10300 730 c-9 -6 -10 -10 -3 -10 6 0 15 5 18 10 8 12 4 12 -15 0z"/>
<path d="M10400 731 c0 -6 4 -13 10 -16 6 -3 7 1 4 9 -7 18 -14 21 -14 7z"/>
<path d="M10590 410 c0 -6 -4 -8 -10 -5 -6 3 -7 -1 -4 -9 3 -9 14 -16 23 -15
12 0 12 2 2 6 -10 4 -10 7 -1 13 9 5 9 9 1 14 -6 4 -11 2 -11 -4z"/>
<path d="M12218 1093 c-64 -4 -77 -22 -30 -40 24 -10 25 -11 5 -12 -12 -1 -28
5 -36 13 -10 10 -23 12 -48 6 l-34 -8 31 -1 c19 -1 38 -10 50 -23 19 -23 19
-23 -2 -5 -11 9 -37 17 -58 17 -25 0 -35 4 -30 11 4 7 -11 2 -33 -11 -34 -18
-40 -27 -39 -51 0 -16 6 -29 13 -29 7 0 13 -5 13 -12 0 -6 -3 -8 -7 -5 -3 4
-12 -1 -20 -11 -13 -16 -13 -16 -11 3 1 11 -1 26 -6 34 -6 9 -5 12 1 8 5 -3
10 0 10 7 0 7 -6 13 -13 13 -7 0 -11 -4 -8 -9 3 -4 0 -8 -6 -8 -6 0 -18 -7
-26 -15 -9 -8 -11 -15 -5 -15 5 0 13 5 16 10 3 6 11 10 17 10 6 0 1 -11 -12
-25 -22 -23 -47 -35 -36 -17 3 5 -1 9 -8 9 -8 0 -12 -6 -9 -14 4 -9 0 -11 -13
-6 -16 6 -17 4 -7 -9 7 -8 9 -19 5 -24 -4 -4 0 -3 8 3 17 13 63 -3 63 -22 -1
-5 6 -19 13 -30 16 -22 18 -35 5 -35 -5 0 -12 11 -15 25 -4 14 -10 24 -15 21
-4 -3 -15 4 -24 14 -9 11 -23 17 -32 14 -10 -4 -15 0 -15 11 0 14 -3 15 -15 5
-8 -7 -15 -19 -15 -26 0 -8 -4 -14 -8 -14 -4 0 -16 -14 -26 -31 -11 -18 -13
-28 -6 -24 9 5 10 2 6 -12 -4 -11 -2 -32 4 -47 6 -18 6 -25 0 -21 -6 3 -10 13
-10 21 0 8 -5 14 -11 14 -7 0 -8 -7 -4 -17 15 -37 17 -53 6 -53 -6 0 -11 9
-11 20 0 11 -4 20 -9 20 -5 0 -7 -8 -5 -17 10 -50 11 -98 2 -113 -7 -10 -8
-28 -3 -46 5 -16 7 -36 6 -44 -1 -12 0 -12 7 -1 11 16 27 -3 17 -20 -6 -9 70
-89 84 -89 15 1 34 20 27 27 -5 4 -11 2 -13 -4 -3 -7 -9 -13 -15 -13 -6 0 -5
7 3 16 12 15 11 16 -11 10 -18 -5 -21 -5 -10 3 8 5 11 13 7 18 -5 4 -12 1 -17
-6 -7 -12 -11 -12 -24 1 -14 14 -14 17 0 22 8 3 12 2 9 -4 -3 -6 -1 -10 5 -10
6 0 13 7 16 15 4 8 10 15 15 15 4 0 5 -8 2 -17 -5 -12 -2 -15 10 -10 11 4 14
2 10 -9 -3 -7 -1 -14 5 -14 12 0 33 56 24 65 -4 4 -2 6 3 5 24 -5 27 1 9 15
-18 14 -17 14 8 4 26 -11 26 -13 10 -26 -16 -14 -16 -14 2 -9 14 5 17 2 12
-10 -3 -8 -6 -18 -6 -20 0 -2 -9 -4 -20 -4 -18 0 -25 -11 -21 -34 1 -4 -3 -14
-10 -22 -13 -16 -12 -17 84 -39 80 -18 80 -18 73 -6 -6 9 93 25 102 16 3 -3
-8 -5 -24 -6 -16 0 -23 -3 -16 -6 11 -4 74 7 135 24 10 3 16 10 14 17 -5 13
31 41 40 32 3 -3 -2 -8 -11 -12 -9 -3 -16 -11 -16 -17 0 -5 8 -3 18 6 10 10
22 14 26 10 4 -4 4 1 0 12 -7 18 -6 19 12 5 14 -11 16 -11 7 0 -19 21 -54 22
-75 4 -20 -19 -26 -6 -6 14 9 9 9 15 1 23 -12 12 -53 3 -53 -12 0 -16 -25 -10
-37 10 -12 18 -10 19 25 15 36 -5 36 -5 13 9 -21 13 -29 13 -58 0 -19 -7 -43
-11 -53 -8 -10 3 -21 1 -25 -5 -4 -6 -13 -7 -23 -1 -9 4 -23 6 -30 4 -7 -3
-20 1 -29 9 -12 9 -15 9 -9 1 5 -9 2 -11 -8 -7 -9 3 -14 10 -11 14 7 11 -40
40 -63 40 -14 0 -18 7 -18 30 0 16 2 27 5 24 3 -3 6 -13 6 -22 0 -9 9 -18 20
-19 11 -2 15 0 9 3 -7 3 -10 14 -7 24 3 11 0 20 -6 20 -6 0 -11 14 -11 30 0
17 4 30 8 30 9 0 36 89 33 109 -2 8 2 10 11 5 7 -4 10 -4 6 1 -5 5 1 14 12 22
12 8 17 20 13 30 -4 11 -3 14 5 9 7 -4 12 -1 12 8 0 8 5 18 12 22 7 5 9 2 4
-7 -4 -8 9 3 28 25 20 21 33 43 30 47 -3 5 7 4 23 -1 25 -9 26 -9 10 4 -15 12
-13 13 20 11 21 -2 49 -4 63 -4 16 -1 21 -4 13 -9 -7 -4 7 -9 32 -10 24 -1 47
3 50 8 3 6 1 10 -6 10 -7 0 -10 2 -7 5 3 3 16 1 29 -4 28 -10 84 22 75 45 -3
7 -1 16 4 19 5 3 8 13 7 23 -2 30 -48 20 -62 -14 -11 -27 -12 -26 -9 22 l3 50
-32 -3 c-26 -3 -28 -1 -12 6 12 6 14 9 5 8 -8 0 -41 -2 -72 -4z m-5 -20 c-7
-2 -19 -2 -25 0 -7 3 -2 5 12 5 14 0 19 -2 13 -5z m52 -13 l-30 -8 30 -2 c17
-1 24 -4 17 -7 -19 -7 -64 6 -57 17 3 6 21 9 38 9 l32 -1 -30 -8z m-205 -30
c0 -5 -4 -10 -10 -10 -5 0 -10 5 -10 10 0 6 5 10 10 10 6 0 10 -4 10 -10z
m313 -8 c3 -4 -6 -20 -19 -35 -13 -16 -24 -24 -24 -18 0 5 7 17 16 25 8 9 12
20 9 26 -3 5 -2 10 4 10 5 0 12 -3 14 -8z m-243 -22 c0 -5 -7 -10 -15 -10 -8
0 -15 5 -15 10 0 6 7 10 15 10 8 0 15 -4 15 -10z m140 -21 c0 -19 -31 -31 -51
-19 -9 6 -10 12 -1 22 16 20 52 17 52 -3z m-115 1 c3 -5 1 -10 -4 -10 -6 0
-11 5 -11 10 0 6 2 10 4 10 3 0 8 -4 11 -10z m218 -5 c-3 -9 -8 -14 -10 -11
-3 3 -2 9 2 15 9 16 15 13 8 -4z m-308 -35 c3 -5 1 -10 -4 -10 -6 0 -11 5 -11
10 0 6 2 10 4 10 3 0 8 -4 11 -10z m202 -6 c-3 -3 -12 -4 -19 -1 -8 3 -5 6 6
6 11 1 17 -2 13 -5z m-254 -39 c-6 -26 -30 -52 -40 -41 -3 3 -1 6 6 6 7 0 9 4
6 10 -7 11 12 50 24 50 5 0 6 -11 4 -25z m-133 -60 c0 -22 31 -66 41 -59 5 3
6 10 3 16 -4 7 -2 8 4 4 16 -9 15 7 0 22 -9 9 -9 12 0 12 20 0 26 -29 9 -48
-13 -15 -31 -69 -32 -99 0 -6 -4 -15 -9 -20 -5 -4 -6 -3 -3 4 4 6 1 18 -7 26
-13 12 -13 18 0 42 17 34 18 38 1 32 -10 -4 -13 2 -9 18 2 12 -1 26 -7 29 -14
9 -14 36 -1 36 6 0 10 -7 10 -15z m-45 -35 c-5 -8 -11 -8 -17 -2 -6 6 -7 16
-3 22 5 8 11 8 17 2 6 -6 7 -16 3 -22z m1 -61 c1 -32 1 -32 -12 -8 -17 30 -17
39 -1 39 7 0 12 -14 13 -31z m19 -99 c3 -5 1 -10 -4 -10 -6 0 -11 5 -11 10 0
6 2 10 4 10 3 0 8 -4 11 -10z m-52 -108 c-5 -12 -7 -12 -15 2 -11 20 1 44 12
25 5 -6 6 -19 3 -27z m53 6 c5 -8 2 -9 -10 -5 -13 5 -16 3 -12 -11 7 -23 -9
-50 -17 -29 -14 37 20 76 39 45z m404 -83 c-7 -9 -15 -13 -17 -11 -7 7 7 26
19 26 6 0 6 -6 -2 -15z m-40 -59 c0 -8 -4 -17 -9 -20 -14 -9 -71 5 -65 15 3 5
10 7 15 4 5 -4 17 -1 26 4 25 14 33 13 33 -3z m-273 -12 c-3 -3 -12 -4 -19 -1
-8 3 -5 6 6 6 11 1 17 -2 13 -5z m128 -14 c-16 -4 -41 -8 -55 -8 l-25 0 25 8
c14 4 39 8 55 8 l30 0 -30 -8z"/>
<path d="M12188 383 c7 -3 16 -2 19 1 4 3 -2 6 -13 5 -11 0 -14 -3 -6 -6z"/>
<path d="M9097 1077 c3 -5 -4 -7 -18 -3 -24 7 -24 7 1 -8 28 -17 44 -20 36 -7
-4 5 4 7 16 3 13 -3 19 -1 15 5 -4 6 -18 13 -32 15 -14 3 -22 1 -18 -5z"/>
<path d="M12335 1070 c-3 -5 -2 -10 4 -10 5 0 18 -3 28 -7 17 -6 17 -6 1 10
-19 20 -24 21 -33 7z"/>
<path d="M10915 1060 c-3 -5 -1 -10 4 -10 6 0 11 5 11 10 0 6 -2 10 -4 10 -3
0 -8 -4 -11 -10z"/>
<path d="M7893 1013 c9 -9 20 -13 24 -9 4 4 1 11 -7 16 -25 16 -35 11 -17 -7z"/>
<path d="M7930 1000 c0 -5 5 -10 10 -10 6 0 10 5 10 10 0 6 -4 10 -10 10 -5 0
-10 -4 -10 -10z"/>
<path d="M7770 925 c0 -9 12 -20 28 -26 35 -14 86 -29 81 -25 -2 3 -21 18 -43
35 -42 34 -66 39 -66 16z m30 -5 c0 -5 -5 -10 -11 -10 -5 0 -7 5 -4 10 3 6 8
10 11 10 2 0 4 -4 4 -10z m35 -20 c3 -6 -1 -7 -9 -4 -18 7 -21 14 -7 14 6 0
13 -4 16 -10z"/>
<path d="M8622 920 c0 -14 2 -19 5 -12 2 6 2 18 0 25 -3 6 -5 1 -5 -13z"/>
<path d="M12085 910 c-3 -6 1 -7 9 -4 18 7 21 14 7 14 -6 0 -13 -4 -16 -10z"/>
<path d="M8055 860 c4 -6 11 -8 16 -5 14 9 11 15 -7 15 -8 0 -12 -5 -9 -10z"/>
<path d="M10988 844 c-9 -19 -9 -30 0 -44 14 -23 6 -48 -23 -72 -11 -10 -15
-17 -7 -18 16 0 52 37 52 54 0 8 -4 26 -10 40 -11 29 -3 59 12 50 6 -4 6 -9
-2 -14 -7 -4 -9 -13 -5 -20 11 -17 27 13 19 34 -9 23 -23 20 -36 -10z"/>
<path d="M12711 834 c0 -11 3 -14 6 -6 3 7 2 16 -1 19 -3 4 -6 -2 -5 -13z"/>
<path d="M8031 816 c-9 -10 -8 -15 2 -19 19 -7 41 8 33 22 -10 15 -21 14 -35
-3z"/>
<path d="M13096 811 c-3 -5 1 -11 9 -15 8 -3 15 -1 15 4 0 13 -18 22 -24 11z"/>
<path d="M13006 784 c-11 -8 -16 -14 -10 -14 13 0 39 18 34 24 -3 2 -14 -2
-24 -10z"/>
<path d="M8790 776 c0 -7 7 -19 15 -26 12 -10 18 -10 30 0 18 15 20 -1 3 -19
-11 -11 -9 -11 9 -2 12 6 21 20 20 31 -2 24 -5 25 -29 3 -15 -14 -21 -14 -31
-3 -8 9 -9 11 0 6 6 -3 14 -2 17 3 3 5 -1 12 -10 15 -22 8 -24 8 -24 -8z"/>
<path d="M10967 771 c-4 -17 -3 -21 5 -13 5 5 8 16 6 23 -3 8 -7 3 -11 -10z"/>
<path d="M8730 766 c0 -9 5 -16 10 -16 6 0 10 4 10 9 0 6 -4 13 -10 16 -5 3
-10 -1 -10 -9z"/>
<path d="M8760 770 c0 -5 5 -10 10 -10 6 0 10 5 10 10 0 6 -4 10 -10 10 -5 0
-10 -4 -10 -10z"/>
<path d="M13446 745 c-9 -26 -7 -32 5 -12 6 10 9 21 6 23 -2 3 -7 -2 -11 -11z"/>
<path d="M12693 689 c-1 -23 2 -37 8 -34 11 7 12 45 1 62 -5 7 -8 -4 -9 -28z"/>
<path d="M9730 685 c-10 -13 -9 -15 11 -15 34 0 56 15 34 24 -24 9 -31 8 -45
-9z"/>
<path d="M11752 635 c0 -16 2 -22 5 -12 2 9 2 23 0 30 -3 6 -5 -1 -5 -18z"/>
<path d="M11072 570 c-1 -39 2 -49 8 -34 4 11 5 36 0 55 -7 31 -8 29 -8 -21z"/>
<path d="M12322 587 c-18 -10 -32 -25 -32 -34 0 -8 -4 -11 -10 -8 -13 8 -52
-19 -42 -30 4 -4 -2 -5 -13 -1 -15 5 -17 4 -9 -4 6 -6 24 -12 40 -14 16 -2 29
-9 29 -16 0 -7 6 -15 14 -18 8 -3 11 0 7 7 -4 6 -2 11 3 11 6 0 11 -7 11 -16
0 -14 3 -14 15 -4 9 7 18 10 22 6 3 -3 0 -6 -8 -6 -9 -1 -8 -4 5 -11 13 -8 20
-8 26 1 4 6 11 11 15 10 15 -4 54 40 49 55 -4 8 -8 15 -11 15 -3 0 -3 -6 -1
-12 3 -7 -4 -22 -16 -33 -12 -11 -18 -16 -13 -11 12 16 8 29 -6 23 -10 -4 -14
4 -14 24 0 22 5 29 16 27 11 -2 15 -12 13 -28 -3 -25 -3 -25 12 2 8 16 17 31
19 35 3 5 -16 8 -41 8 -38 0 -50 -5 -63 -23 -12 -18 -18 -20 -23 -10 -3 7 -4
3 -2 -9 5 -26 -9 -31 -18 -8 -8 21 15 55 36 55 10 0 18 5 18 10 0 6 8 10 18
10 14 0 15 -2 2 -10 -12 -8 -9 -10 13 -10 21 0 28 4 25 17 -4 23 -47 23 -86 0z
m-52 -67 c0 -5 -5 -10 -11 -10 -5 0 -7 5 -4 10 3 6 8 10 11 10 2 0 4 -4 4 -10z"/>
<path d="M8008 536 c-13 -10 -13 -13 -1 -25 8 -7 17 -10 21 -6 3 3 0 10 -7 14
-8 6 -9 11 -3 15 6 3 13 2 17 -4 8 -12 25 -13 25 -1 0 14 -35 19 -52 7z"/>
<path d="M12445 541 c-3 -5 -1 -12 5 -16 5 -3 10 1 10 9 0 18 -6 21 -15 7z"/>
<path d="M10900 458 c1 -7 7 -26 16 -43 12 -26 14 -27 9 -5 -2 14 -5 33 -5 43
0 9 -4 17 -10 17 -5 0 -10 -6 -10 -12z"/>
<path d="M12764 359 c-16 -10 -24 -19 -19 -20 6 0 24 -2 41 -4 36 -5 65 17 42
31 -22 14 -35 13 -64 -7z m48 -11 c-7 -7 -12 -8 -12 -2 0 14 12 26 19 19 2 -3
-1 -11 -7 -17z"/>
<path d="M10910 345 c0 -5 5 -17 10 -25 5 -8 10 -10 10 -5 0 6 -5 17 -10 25
-5 8 -10 11 -10 5z"/>
<path d="M12088 343 c7 -3 16 -2 19 1 4 3 -2 6 -13 5 -11 0 -14 -3 -6 -6z"/>
</g>
</svg>
